G75*
%MOIN*%
%OFA0B0*%
%FSLAX24Y24*%
%IPPOS*%
%LPD*%
%AMOC8*
5,1,8,0,0,1.08239X$1,22.5*
%
%ADD10C,0.0740*%
%ADD11OC8,0.0520*%
%ADD12OC8,0.0660*%
%ADD13OC8,0.0630*%
%ADD14C,0.0600*%
%ADD15OC8,0.0600*%
%ADD16C,0.0560*%
%ADD17C,0.0160*%
%ADD18R,0.0396X0.0396*%
D10*
X016170Y008330D03*
X016170Y009330D03*
X023580Y020115D03*
X024580Y020115D03*
X008470Y020180D03*
X007470Y020180D03*
D11*
X008530Y019010D03*
X009680Y018930D03*
X011180Y020680D03*
X008830Y021780D03*
X007930Y021680D03*
X008030Y022580D03*
X011180Y023680D03*
X014430Y023680D03*
X014430Y020680D03*
X017930Y020680D03*
X017930Y023680D03*
X023280Y022580D03*
X024180Y022680D03*
X024080Y021780D03*
X024150Y018780D03*
X022180Y018680D03*
X022180Y015680D03*
X024150Y015780D03*
X018080Y009200D03*
X016580Y007330D03*
X016680Y006430D03*
X015780Y006530D03*
X014180Y006180D03*
X014180Y009180D03*
X018080Y006200D03*
X009680Y015930D03*
X008530Y016010D03*
D12*
X012805Y020555D03*
X012805Y022055D03*
X012805Y023555D03*
X016305Y023555D03*
X016305Y022055D03*
X016305Y020555D03*
X019805Y020555D03*
X019805Y022055D03*
X019805Y023555D03*
D13*
X018930Y019680D03*
X018930Y018680D03*
X018430Y014680D03*
X018430Y013680D03*
X016680Y012930D03*
X015680Y012930D03*
X013930Y016430D03*
X013930Y017430D03*
X013930Y018430D03*
X013930Y019430D03*
D14*
X018430Y016430D03*
D15*
X019430Y016430D03*
X020430Y016430D03*
X020430Y017430D03*
X019430Y017430D03*
X018430Y017430D03*
D16*
X019900Y014680D02*
X020460Y014680D01*
X020460Y013680D02*
X019900Y013680D01*
X019460Y012180D02*
X018900Y012180D01*
X018900Y011180D02*
X019460Y011180D01*
X019460Y010180D02*
X018900Y010180D01*
X012710Y010180D02*
X012150Y010180D01*
X012150Y011180D02*
X012710Y011180D01*
X012710Y012180D02*
X012150Y012180D01*
X011900Y013680D02*
X012460Y013680D01*
X012460Y014680D02*
X011900Y014680D01*
D17*
X011318Y008643D02*
X015717Y008643D01*
X015700Y008618D02*
X015660Y008541D01*
X015634Y008459D01*
X015620Y008373D01*
X015620Y008330D01*
X016170Y008330D01*
X016720Y008330D01*
X016720Y008373D01*
X016706Y008459D01*
X016680Y008541D01*
X016640Y008618D01*
X016590Y008688D01*
X016528Y008750D01*
X016468Y008793D01*
X016516Y008813D01*
X016687Y008984D01*
X016780Y009209D01*
X016780Y009451D01*
X016687Y009676D01*
X016516Y009847D01*
X016291Y009940D01*
X016049Y009940D01*
X015824Y009847D01*
X015653Y009676D01*
X015618Y009592D01*
X015618Y009666D01*
X016361Y010409D01*
X016451Y010499D01*
X016500Y010616D01*
X016500Y012435D01*
X016680Y012435D01*
X016885Y012435D01*
X017175Y012725D01*
X017175Y012930D01*
X017175Y013135D01*
X016885Y013425D01*
X016680Y013425D01*
X016680Y012930D01*
X016680Y012930D01*
X017175Y012930D01*
X016680Y012930D01*
X016680Y012930D01*
X016680Y013425D01*
X016500Y013425D01*
X016500Y013744D01*
X016451Y013861D01*
X015000Y015313D01*
X015000Y018047D01*
X015742Y018789D01*
X015742Y018309D01*
X015778Y018221D01*
X015846Y018153D01*
X015934Y018117D01*
X016426Y018117D01*
X016514Y018153D01*
X016582Y018221D01*
X016587Y018235D01*
X016860Y018235D01*
X016860Y017694D01*
X016608Y017839D01*
X016326Y017915D01*
X016034Y017915D01*
X015752Y017839D01*
X015498Y017693D01*
X015292Y017487D01*
X015146Y017233D01*
X015070Y016951D01*
X015070Y016659D01*
X015146Y016377D01*
X015292Y016123D01*
X015498Y015917D01*
X015752Y015771D01*
X016034Y015695D01*
X016326Y015695D01*
X016608Y015771D01*
X016862Y015917D01*
X017068Y016123D01*
X017214Y016377D01*
X017290Y016659D01*
X017290Y016951D01*
X017275Y017008D01*
X017624Y016659D01*
X017741Y016610D01*
X017984Y016610D01*
X017962Y016542D01*
X017950Y016468D01*
X017950Y016450D01*
X018410Y016450D01*
X018410Y016410D01*
X018450Y016410D01*
X018450Y015950D01*
X018468Y015950D01*
X018542Y015962D01*
X018614Y015985D01*
X018682Y016019D01*
X018743Y016064D01*
X018796Y016117D01*
X018841Y016178D01*
X018875Y016246D01*
X018890Y016292D01*
X018890Y016206D01*
X019206Y015890D01*
X019437Y015890D01*
X019249Y015701D01*
X019159Y015611D01*
X019110Y015494D01*
X019110Y014063D01*
X019047Y014000D01*
X018895Y014000D01*
X018672Y014222D01*
X018925Y014475D01*
X018925Y014680D01*
X018925Y014885D01*
X018635Y015175D01*
X018430Y015175D01*
X018430Y014680D01*
X018925Y014680D01*
X018430Y014680D01*
X018430Y014680D01*
X018430Y014680D01*
X018430Y014680D01*
X017935Y014680D01*
X017935Y014885D01*
X018225Y015175D01*
X018430Y015175D01*
X018430Y014680D01*
X017935Y014680D01*
X017935Y014475D01*
X018188Y014222D01*
X017875Y013910D01*
X017875Y013450D01*
X018200Y013125D01*
X018660Y013125D01*
X018895Y013360D01*
X019244Y013360D01*
X019361Y013409D01*
X019424Y013471D01*
X019459Y013385D01*
X019605Y013239D01*
X019797Y013160D01*
X020563Y013160D01*
X020755Y013239D01*
X020901Y013385D01*
X020980Y013577D01*
X020980Y013783D01*
X020901Y013975D01*
X020755Y014121D01*
X020563Y014200D01*
X019797Y014200D01*
X019750Y014181D01*
X019750Y014245D01*
X019792Y014231D01*
X019864Y014220D01*
X020170Y014220D01*
X020170Y014670D01*
X020190Y014670D01*
X020190Y014690D01*
X020170Y014690D01*
X020170Y015140D01*
X019864Y015140D01*
X019792Y015129D01*
X019750Y015115D01*
X019750Y015297D01*
X020343Y015890D01*
X020654Y015890D01*
X020970Y016206D01*
X020970Y016654D01*
X020694Y016930D01*
X020874Y017110D01*
X022367Y017110D01*
X022527Y016951D01*
X022527Y016719D01*
X022563Y016631D01*
X022631Y016563D01*
X022719Y016527D01*
X023211Y016527D01*
X023299Y016563D01*
X023367Y016631D01*
X023403Y016719D01*
X023403Y017211D01*
X023367Y017299D01*
X023299Y017367D01*
X023211Y017403D01*
X022979Y017403D01*
X022771Y017611D01*
X022771Y017611D01*
X022681Y017701D01*
X022564Y017750D01*
X020874Y017750D01*
X020654Y017970D01*
X020206Y017970D01*
X019930Y017694D01*
X019654Y017970D01*
X019206Y017970D01*
X018930Y017694D01*
X018750Y017874D01*
X018750Y018047D01*
X018828Y018125D01*
X019160Y018125D01*
X019485Y018450D01*
X019485Y018910D01*
X019172Y019222D01*
X019425Y019475D01*
X019425Y019680D01*
X019425Y019885D01*
X019135Y020175D01*
X018930Y020175D01*
X018930Y019680D01*
X018930Y019680D01*
X019425Y019680D01*
X018930Y019680D01*
X018930Y019680D01*
X018930Y020175D01*
X018725Y020175D01*
X018500Y019950D01*
X018500Y020047D01*
X019861Y021409D01*
X019938Y021485D01*
X020041Y021485D01*
X020375Y021819D01*
X020375Y022291D01*
X020041Y022625D01*
X019569Y022625D01*
X019235Y022291D01*
X019235Y021819D01*
X019301Y021753D01*
X018430Y020883D01*
X018430Y020887D01*
X018137Y021180D01*
X018038Y021180D01*
X017846Y021563D01*
X017826Y021611D01*
X017818Y021620D01*
X017813Y021630D01*
X017773Y021664D01*
X017736Y021701D01*
X017725Y021706D01*
X017717Y021713D01*
X017667Y021730D01*
X017619Y021750D01*
X017607Y021750D01*
X017596Y021754D01*
X017544Y021750D01*
X016806Y021750D01*
X016875Y021819D01*
X016875Y022291D01*
X016541Y022625D01*
X016069Y022625D01*
X015735Y022291D01*
X015735Y021819D01*
X015804Y021750D01*
X013306Y021750D01*
X013375Y021819D01*
X013375Y022291D01*
X013041Y022625D01*
X012569Y022625D01*
X012235Y022291D01*
X012235Y021819D01*
X012304Y021750D01*
X011179Y021750D01*
X009901Y022912D01*
X009861Y022951D01*
X009854Y022954D01*
X009848Y022960D01*
X009795Y022979D01*
X009744Y023000D01*
X009736Y023000D01*
X009728Y023003D01*
X009672Y023000D01*
X008317Y023000D01*
X008237Y023080D01*
X007823Y023080D01*
X007530Y022787D01*
X007530Y022373D01*
X007723Y022180D01*
X007723Y022180D01*
X007430Y021887D01*
X007430Y021473D01*
X007723Y021180D01*
X008137Y021180D01*
X008430Y021473D01*
X008623Y021280D01*
X008877Y021280D01*
X009360Y020797D01*
X009360Y019317D01*
X009180Y019137D01*
X009180Y018723D01*
X009473Y018430D01*
X009887Y018430D01*
X010067Y018610D01*
X010860Y018610D01*
X010860Y017116D01*
X010909Y016999D01*
X011242Y016666D01*
X011242Y016434D01*
X011278Y016346D01*
X011346Y016278D01*
X011434Y016242D01*
X011926Y016242D01*
X012014Y016278D01*
X012082Y016346D01*
X012118Y016434D01*
X012118Y016926D01*
X012082Y017014D01*
X012014Y017082D01*
X011926Y017118D01*
X011694Y017118D01*
X011500Y017313D01*
X011500Y018994D01*
X011490Y019018D01*
X011514Y019028D01*
X011582Y019096D01*
X011618Y019184D01*
X011618Y019676D01*
X011582Y019764D01*
X011514Y019832D01*
X011500Y019837D01*
X011500Y020293D01*
X011680Y020473D01*
X011680Y020887D01*
X011500Y021067D01*
X011500Y021110D01*
X014153Y021110D01*
X013930Y020887D01*
X013930Y020473D01*
X014223Y020180D01*
X014637Y020180D01*
X014930Y020473D01*
X014930Y020727D01*
X014951Y020749D01*
X015000Y020866D01*
X015000Y021110D01*
X017357Y021110D01*
X017456Y020913D01*
X017430Y020887D01*
X017430Y020473D01*
X017723Y020180D01*
X017860Y020180D01*
X017860Y019118D01*
X017684Y019118D01*
X017596Y019082D01*
X017528Y019014D01*
X017492Y018926D01*
X017492Y018513D01*
X017451Y018611D01*
X017326Y018736D01*
X017236Y018826D01*
X017119Y018875D01*
X016594Y018875D01*
X016618Y018934D01*
X016618Y019426D01*
X016582Y019514D01*
X016514Y019582D01*
X016426Y019618D01*
X015934Y019618D01*
X015846Y019582D01*
X015778Y019514D01*
X015773Y019500D01*
X015616Y019500D01*
X015499Y019451D01*
X014485Y018438D01*
X014485Y018660D01*
X014172Y018972D01*
X014425Y019225D01*
X014425Y019430D01*
X014425Y019635D01*
X014135Y019925D01*
X013930Y019925D01*
X013930Y019430D01*
X013930Y019430D01*
X014425Y019430D01*
X013930Y019430D01*
X013930Y019430D01*
X013930Y019430D01*
X013435Y019430D01*
X013435Y019635D01*
X013725Y019925D01*
X013930Y019925D01*
X013930Y019430D01*
X013435Y019430D01*
X013435Y019225D01*
X013688Y018972D01*
X013375Y018660D01*
X013375Y018200D01*
X013645Y017930D01*
X013375Y017660D01*
X013375Y017328D01*
X011047Y015000D01*
X009813Y015000D01*
X009020Y015793D01*
X009030Y015803D01*
X009030Y016217D01*
X008737Y016510D01*
X008323Y016510D01*
X008030Y016217D01*
X008030Y015803D01*
X008323Y015510D01*
X008397Y015510D01*
X009499Y014409D01*
X009616Y014360D01*
X011047Y014360D01*
X011451Y013956D01*
X011380Y013783D01*
X011380Y013577D01*
X011399Y013531D01*
X011362Y013568D01*
X011108Y013714D01*
X010826Y013790D01*
X010534Y013790D01*
X010252Y013714D01*
X009998Y013568D01*
X009792Y013362D01*
X009646Y013108D01*
X009570Y012826D01*
X009570Y012534D01*
X009646Y012252D01*
X009792Y011998D01*
X009998Y011792D01*
X010252Y011646D01*
X010534Y011570D01*
X010826Y011570D01*
X011108Y011646D01*
X011309Y011761D01*
X010909Y011361D01*
X010860Y011244D01*
X010860Y009616D01*
X010909Y009499D01*
X010999Y009409D01*
X011499Y008909D01*
X011616Y008860D01*
X012744Y008860D01*
X012861Y008909D01*
X012951Y008999D01*
X013951Y009999D01*
X014000Y010116D01*
X014000Y010297D01*
X014194Y010492D01*
X014426Y010492D01*
X014514Y010528D01*
X014582Y010596D01*
X014618Y010684D01*
X014618Y011176D01*
X014582Y011264D01*
X014514Y011332D01*
X014426Y011368D01*
X013934Y011368D01*
X013846Y011332D01*
X013778Y011264D01*
X013742Y011176D01*
X013742Y010944D01*
X013499Y010701D01*
X013409Y010611D01*
X013360Y010494D01*
X013360Y010313D01*
X013230Y010183D01*
X013230Y010283D01*
X013151Y010475D01*
X013005Y010621D01*
X012862Y010680D01*
X013005Y010739D01*
X013151Y010885D01*
X013230Y011077D01*
X013230Y011283D01*
X013159Y011456D01*
X013861Y012159D01*
X013951Y012249D01*
X014000Y012366D01*
X014000Y012773D01*
X014014Y012778D01*
X014082Y012846D01*
X014118Y012934D01*
X014118Y013360D01*
X014797Y013360D01*
X015125Y013032D01*
X015125Y012700D01*
X015450Y012375D01*
X015860Y012375D01*
X015860Y010813D01*
X015166Y010118D01*
X014934Y010118D01*
X014846Y010082D01*
X014778Y010014D01*
X014742Y009926D01*
X014742Y009434D01*
X014778Y009346D01*
X014846Y009278D01*
X014934Y009242D01*
X015426Y009242D01*
X015514Y009278D01*
X015560Y009324D01*
X015560Y009209D01*
X015653Y008984D01*
X015824Y008813D01*
X015872Y008793D01*
X015812Y008750D01*
X015750Y008688D01*
X015700Y008618D01*
X015642Y008484D02*
X011437Y008484D01*
X011555Y008326D02*
X015620Y008326D01*
X015620Y008330D02*
X015620Y008287D01*
X015634Y008201D01*
X015660Y008119D01*
X015700Y008042D01*
X015750Y007972D01*
X015812Y007910D01*
X015882Y007860D01*
X015959Y007820D01*
X016041Y007794D01*
X016127Y007780D01*
X016170Y007780D01*
X016213Y007780D01*
X016299Y007794D01*
X016355Y007812D01*
X016080Y007537D01*
X016080Y007123D01*
X016373Y006830D01*
X016280Y006737D01*
X016280Y006737D01*
X015987Y007030D01*
X015573Y007030D01*
X015280Y006737D01*
X015280Y006323D01*
X015573Y006030D01*
X015987Y006030D01*
X016180Y006223D01*
X016180Y006223D01*
X016473Y005930D01*
X016887Y005930D01*
X017180Y006223D01*
X017180Y006637D01*
X016887Y006930D01*
X017080Y007123D01*
X017080Y007537D01*
X016787Y007830D01*
X016400Y007830D01*
X016458Y007860D01*
X016528Y007910D01*
X016590Y007972D01*
X016640Y008042D01*
X016680Y008119D01*
X016706Y008201D01*
X016720Y008287D01*
X016720Y008330D01*
X016170Y008330D01*
X016170Y008330D01*
X016170Y007780D01*
X016170Y008330D01*
X016170Y008330D01*
X016170Y008330D01*
X015620Y008330D01*
X015645Y008167D02*
X011674Y008167D01*
X011792Y008009D02*
X015724Y008009D01*
X015901Y007850D02*
X011911Y007850D01*
X012030Y007692D02*
X016234Y007692D01*
X016170Y007850D02*
X016170Y007850D01*
X016170Y008009D02*
X016170Y008009D01*
X016170Y008167D02*
X016170Y008167D01*
X016170Y008326D02*
X016170Y008326D01*
X016439Y007850D02*
X020509Y007850D01*
X020390Y007692D02*
X016926Y007692D01*
X017080Y007533D02*
X020272Y007533D01*
X020153Y007375D02*
X017080Y007375D01*
X017080Y007216D02*
X020035Y007216D01*
X019975Y007136D02*
X018735Y005704D01*
X018214Y005165D01*
X014206Y005165D01*
X013685Y005704D01*
X012445Y007136D01*
X011311Y008652D01*
X010288Y010245D01*
X009381Y011908D01*
X008595Y013631D01*
X007934Y015406D01*
X007402Y017223D01*
X007001Y019074D01*
X006855Y019978D01*
X006855Y023875D01*
X010680Y023875D01*
X010680Y023473D01*
X010973Y023180D01*
X011387Y023180D01*
X011680Y023473D01*
X011680Y023875D01*
X012319Y023875D01*
X012235Y023791D01*
X012235Y023319D01*
X012569Y022985D01*
X013041Y022985D01*
X013375Y023319D01*
X013375Y023791D01*
X013291Y023875D01*
X013930Y023875D01*
X013930Y023473D01*
X014223Y023180D01*
X014637Y023180D01*
X014930Y023473D01*
X014930Y023477D01*
X014951Y023499D01*
X015000Y023616D01*
X015000Y023744D01*
X014951Y023861D01*
X014938Y023875D01*
X015819Y023875D01*
X015735Y023791D01*
X015735Y023319D01*
X016069Y022985D01*
X016541Y022985D01*
X016875Y023319D01*
X016875Y023791D01*
X016791Y023875D01*
X017430Y023875D01*
X017430Y023473D01*
X017723Y023180D01*
X018137Y023180D01*
X018430Y023473D01*
X018430Y023875D01*
X019319Y023875D01*
X019235Y023791D01*
X019235Y023319D01*
X019569Y022985D01*
X020041Y022985D01*
X020375Y023319D01*
X020375Y023791D01*
X020291Y023875D01*
X025565Y023875D01*
X025565Y019978D01*
X025419Y019074D01*
X025018Y017223D01*
X024650Y015966D01*
X024650Y015987D01*
X024357Y016280D01*
X023943Y016280D01*
X023650Y015987D01*
X023650Y015573D01*
X023943Y015280D01*
X024357Y015280D01*
X024487Y015410D01*
X024486Y015405D01*
X023825Y013631D01*
X023039Y011908D01*
X022132Y010245D01*
X021109Y008652D01*
X019975Y007136D01*
X019907Y007058D02*
X017015Y007058D01*
X016887Y006930D02*
X016887Y006930D01*
X016918Y006899D02*
X019769Y006899D01*
X019632Y006741D02*
X017077Y006741D01*
X017180Y006582D02*
X017755Y006582D01*
X017873Y006700D02*
X017580Y006407D01*
X017580Y005993D01*
X017873Y005700D01*
X018287Y005700D01*
X018580Y005993D01*
X018580Y006407D01*
X018287Y006700D01*
X017873Y006700D01*
X017596Y006424D02*
X017180Y006424D01*
X017180Y006265D02*
X017580Y006265D01*
X017580Y006107D02*
X017064Y006107D01*
X016905Y005948D02*
X017625Y005948D01*
X017783Y005790D02*
X014497Y005790D01*
X014387Y005680D02*
X014680Y005973D01*
X014680Y006387D01*
X014387Y006680D01*
X013973Y006680D01*
X013680Y006387D01*
X013680Y005973D01*
X013973Y005680D01*
X014387Y005680D01*
X014655Y005948D02*
X016455Y005948D01*
X016296Y006107D02*
X016064Y006107D01*
X015496Y006107D02*
X014680Y006107D01*
X014680Y006265D02*
X015338Y006265D01*
X015280Y006424D02*
X014644Y006424D01*
X014485Y006582D02*
X015280Y006582D01*
X015283Y006741D02*
X012788Y006741D01*
X012651Y006899D02*
X015442Y006899D01*
X016118Y006899D02*
X016304Y006899D01*
X016373Y006830D02*
X016373Y006830D01*
X016283Y006741D02*
X016277Y006741D01*
X016145Y007058D02*
X012513Y007058D01*
X012385Y007216D02*
X016080Y007216D01*
X016080Y007375D02*
X012267Y007375D01*
X012148Y007533D02*
X016080Y007533D01*
X016616Y008009D02*
X020628Y008009D01*
X020746Y008167D02*
X016695Y008167D01*
X016720Y008326D02*
X020865Y008326D01*
X020983Y008484D02*
X016698Y008484D01*
X016623Y008643D02*
X021102Y008643D01*
X021205Y008801D02*
X018388Y008801D01*
X018287Y008700D02*
X018580Y008993D01*
X018580Y009407D01*
X018287Y009700D01*
X017873Y009700D01*
X017580Y009407D01*
X017580Y008993D01*
X017873Y008700D01*
X018287Y008700D01*
X018547Y008960D02*
X021307Y008960D01*
X021408Y009118D02*
X018580Y009118D01*
X018580Y009277D02*
X021510Y009277D01*
X021612Y009435D02*
X018552Y009435D01*
X018394Y009594D02*
X021714Y009594D01*
X021816Y009752D02*
X019767Y009752D01*
X019755Y009739D02*
X019901Y009885D01*
X019980Y010077D01*
X019980Y010283D01*
X019901Y010475D01*
X019755Y010621D01*
X019612Y010680D01*
X019755Y010739D01*
X019901Y010885D01*
X019980Y011077D01*
X019980Y011283D01*
X019901Y011475D01*
X019755Y011621D01*
X019612Y011680D01*
X019755Y011739D01*
X019901Y011885D01*
X019980Y012077D01*
X019980Y012283D01*
X019901Y012475D01*
X019755Y012621D01*
X019563Y012700D01*
X018797Y012700D01*
X018605Y012621D01*
X018459Y012475D01*
X018380Y012283D01*
X018380Y012077D01*
X018459Y011885D01*
X018605Y011739D01*
X018748Y011680D01*
X018605Y011621D01*
X018459Y011475D01*
X018380Y011283D01*
X018380Y011077D01*
X018459Y010885D01*
X018605Y010739D01*
X018748Y010680D01*
X018605Y010621D01*
X018459Y010475D01*
X018380Y010283D01*
X018380Y010077D01*
X018459Y009885D01*
X018605Y009739D01*
X018797Y009660D01*
X019563Y009660D01*
X019755Y009739D01*
X019911Y009911D02*
X021917Y009911D01*
X022019Y010069D02*
X019977Y010069D01*
X019980Y010228D02*
X022121Y010228D01*
X022209Y010386D02*
X019938Y010386D01*
X019831Y010545D02*
X022296Y010545D01*
X022382Y010703D02*
X019667Y010703D01*
X019877Y010862D02*
X022469Y010862D01*
X022555Y011020D02*
X019957Y011020D01*
X019980Y011179D02*
X022642Y011179D01*
X022728Y011337D02*
X019958Y011337D01*
X019880Y011496D02*
X022814Y011496D01*
X022901Y011654D02*
X022248Y011654D01*
X022233Y011646D02*
X022487Y011792D01*
X022693Y011998D01*
X022839Y012252D01*
X022915Y012534D01*
X022915Y012826D01*
X022839Y013108D01*
X022693Y013362D01*
X022487Y013568D01*
X022233Y013714D01*
X021951Y013790D01*
X021659Y013790D01*
X021377Y013714D01*
X021123Y013568D01*
X020917Y013362D01*
X020771Y013108D01*
X020695Y012826D01*
X020695Y012534D01*
X020771Y012252D01*
X020917Y011998D01*
X021123Y011792D01*
X021377Y011646D01*
X021659Y011570D01*
X021951Y011570D01*
X022233Y011646D01*
X022507Y011813D02*
X022987Y011813D01*
X023068Y011971D02*
X022666Y011971D01*
X022769Y012130D02*
X023140Y012130D01*
X023213Y012288D02*
X022849Y012288D01*
X022892Y012447D02*
X023285Y012447D01*
X023357Y012605D02*
X022915Y012605D01*
X022915Y012764D02*
X023430Y012764D01*
X023502Y012922D02*
X022889Y012922D01*
X022847Y013081D02*
X023574Y013081D01*
X023647Y013239D02*
X022764Y013239D01*
X022657Y013398D02*
X023719Y013398D01*
X023791Y013556D02*
X022499Y013556D01*
X022233Y013715D02*
X023856Y013715D01*
X023915Y013873D02*
X020943Y013873D01*
X020980Y013715D02*
X021377Y013715D01*
X021111Y013556D02*
X020971Y013556D01*
X020953Y013398D02*
X020906Y013398D01*
X020846Y013239D02*
X020754Y013239D01*
X020763Y013081D02*
X017175Y013081D01*
X017175Y012922D02*
X020721Y012922D01*
X020695Y012764D02*
X017175Y012764D01*
X017055Y012605D02*
X018590Y012605D01*
X018448Y012447D02*
X016897Y012447D01*
X016680Y012447D02*
X016680Y012447D01*
X016680Y012435D02*
X016680Y012930D01*
X016680Y012930D01*
X016680Y012435D01*
X016680Y012605D02*
X016680Y012605D01*
X016680Y012764D02*
X016680Y012764D01*
X016680Y012922D02*
X016680Y012922D01*
X016680Y013081D02*
X016680Y013081D01*
X016680Y013239D02*
X016680Y013239D01*
X016680Y013398D02*
X016680Y013398D01*
X016913Y013398D02*
X017928Y013398D01*
X017875Y013556D02*
X016500Y013556D01*
X016500Y013715D02*
X017875Y013715D01*
X017875Y013873D02*
X016440Y013873D01*
X016281Y014032D02*
X017997Y014032D01*
X018155Y014190D02*
X016123Y014190D01*
X015964Y014349D02*
X018061Y014349D01*
X017935Y014507D02*
X015806Y014507D01*
X015647Y014666D02*
X017935Y014666D01*
X017935Y014824D02*
X015489Y014824D01*
X015330Y014983D02*
X018032Y014983D01*
X018191Y015141D02*
X015172Y015141D01*
X015013Y015300D02*
X019110Y015300D01*
X019110Y015458D02*
X015000Y015458D01*
X015000Y015617D02*
X019164Y015617D01*
X019322Y015775D02*
X016616Y015775D01*
X016878Y015934D02*
X019163Y015934D01*
X019004Y016092D02*
X018771Y016092D01*
X018876Y016251D02*
X018890Y016251D01*
X018450Y016251D02*
X018410Y016251D01*
X018410Y016409D02*
X018450Y016409D01*
X018410Y016410D02*
X018410Y015950D01*
X018392Y015950D01*
X018318Y015962D01*
X018246Y015985D01*
X018178Y016019D01*
X018117Y016064D01*
X018064Y016117D01*
X018019Y016178D01*
X017985Y016246D01*
X017962Y016318D01*
X017950Y016392D01*
X017950Y016410D01*
X018410Y016410D01*
X018410Y016092D02*
X018450Y016092D01*
X018089Y016092D02*
X017037Y016092D01*
X017141Y016251D02*
X017984Y016251D01*
X017950Y016409D02*
X017223Y016409D01*
X017265Y016568D02*
X017970Y016568D01*
X017805Y016930D02*
X017180Y017555D01*
X017180Y018430D01*
X017055Y018555D01*
X016180Y018555D01*
X016618Y018945D02*
X017500Y018945D01*
X017492Y018787D02*
X017276Y018787D01*
X017435Y018628D02*
X017492Y018628D01*
X017930Y018680D02*
X018180Y018930D01*
X018180Y020180D01*
X019680Y021680D01*
X019680Y022180D01*
X019805Y022055D01*
X020234Y022432D02*
X022780Y022432D01*
X022780Y022373D02*
X023073Y022080D01*
X023487Y022080D01*
X023780Y022373D01*
X023873Y022280D01*
X023873Y022280D01*
X023580Y021987D01*
X023580Y021573D01*
X023873Y021280D01*
X024287Y021280D01*
X024580Y021573D01*
X024580Y021987D01*
X024387Y022180D01*
X024387Y022180D01*
X024680Y022473D01*
X024680Y022887D01*
X024387Y023180D01*
X023973Y023180D01*
X023680Y022887D01*
X023487Y023080D01*
X023073Y023080D01*
X022780Y022787D01*
X022780Y022373D01*
X022879Y022274D02*
X020375Y022274D01*
X020375Y022115D02*
X023038Y022115D01*
X023522Y022115D02*
X023708Y022115D01*
X023681Y022274D02*
X023866Y022274D01*
X023780Y022373D02*
X023780Y022373D01*
X023580Y021957D02*
X020375Y021957D01*
X020354Y021798D02*
X023580Y021798D01*
X023580Y021640D02*
X020196Y021640D01*
X019934Y021481D02*
X023672Y021481D01*
X023830Y021323D02*
X019775Y021323D01*
X019617Y021164D02*
X025565Y021164D01*
X025565Y021006D02*
X020076Y021006D01*
X020016Y021065D02*
X019805Y021065D01*
X019805Y020555D01*
X019805Y020555D01*
X020315Y020555D01*
X020315Y020766D01*
X020016Y021065D01*
X019805Y021065D02*
X019805Y020555D01*
X019805Y020555D01*
X019805Y020555D01*
X019295Y020555D01*
X019295Y020766D01*
X019594Y021065D01*
X019805Y021065D01*
X019805Y021006D02*
X019805Y021006D01*
X019805Y020847D02*
X019805Y020847D01*
X019805Y020689D02*
X019805Y020689D01*
X019805Y020555D02*
X019295Y020555D01*
X019295Y020344D01*
X019594Y020045D01*
X019805Y020045D01*
X020016Y020045D01*
X020315Y020344D01*
X020315Y020555D01*
X019805Y020555D01*
X019805Y020045D01*
X019805Y020555D01*
X019805Y020555D01*
X019805Y020530D02*
X019805Y020530D01*
X019805Y020372D02*
X019805Y020372D01*
X019805Y020213D02*
X019805Y020213D01*
X019805Y020055D02*
X019805Y020055D01*
X020026Y020055D02*
X022970Y020055D01*
X022970Y019994D02*
X023063Y019769D01*
X023234Y019598D01*
X023459Y019505D01*
X023701Y019505D01*
X023926Y019598D01*
X024097Y019769D01*
X024117Y019817D01*
X024160Y019757D01*
X024222Y019695D01*
X024292Y019645D01*
X024369Y019605D01*
X024451Y019579D01*
X024537Y019565D01*
X024580Y019565D01*
X024623Y019565D01*
X024709Y019579D01*
X024791Y019605D01*
X024868Y019645D01*
X024938Y019695D01*
X025000Y019757D01*
X025050Y019827D01*
X025090Y019904D01*
X025116Y019986D01*
X025130Y020072D01*
X025130Y020115D01*
X025130Y020158D01*
X025116Y020244D01*
X025090Y020326D01*
X025050Y020403D01*
X025000Y020473D01*
X024938Y020535D01*
X024868Y020585D01*
X024791Y020625D01*
X024709Y020651D01*
X024623Y020665D01*
X024580Y020665D01*
X024580Y020115D01*
X025130Y020115D01*
X024580Y020115D01*
X024580Y020115D01*
X024580Y020115D01*
X024580Y019565D01*
X024580Y020115D01*
X024580Y020115D01*
X024580Y020665D01*
X024537Y020665D01*
X024451Y020651D01*
X024369Y020625D01*
X024292Y020585D01*
X024222Y020535D01*
X024160Y020473D01*
X024117Y020413D01*
X024097Y020461D01*
X023926Y020632D01*
X023701Y020725D01*
X023459Y020725D01*
X023234Y020632D01*
X023063Y020461D01*
X022970Y020236D01*
X022970Y019994D01*
X023010Y019896D02*
X019414Y019896D01*
X019425Y019738D02*
X023095Y019738D01*
X023280Y019579D02*
X019425Y019579D01*
X019371Y019421D02*
X025475Y019421D01*
X025501Y019579D02*
X024710Y019579D01*
X024580Y019579D02*
X024580Y019579D01*
X024450Y019579D02*
X023880Y019579D01*
X024065Y019738D02*
X024180Y019738D01*
X024580Y019738D02*
X024580Y019738D01*
X024580Y019896D02*
X024580Y019896D01*
X024580Y020055D02*
X024580Y020055D01*
X024580Y020213D02*
X024580Y020213D01*
X024580Y020372D02*
X024580Y020372D01*
X024580Y020530D02*
X024580Y020530D01*
X024943Y020530D02*
X025565Y020530D01*
X025565Y020372D02*
X025067Y020372D01*
X025121Y020213D02*
X025565Y020213D01*
X025565Y020055D02*
X025127Y020055D01*
X025086Y019896D02*
X025552Y019896D01*
X025526Y019738D02*
X024980Y019738D01*
X025450Y019262D02*
X024375Y019262D01*
X024357Y019280D02*
X023943Y019280D01*
X023650Y018987D01*
X023650Y018573D01*
X023943Y018280D01*
X024357Y018280D01*
X024650Y018573D01*
X024650Y018987D01*
X024357Y019280D01*
X024534Y019104D02*
X025424Y019104D01*
X025391Y018945D02*
X024650Y018945D01*
X024650Y018787D02*
X025357Y018787D01*
X025323Y018628D02*
X024650Y018628D01*
X024547Y018470D02*
X025288Y018470D01*
X025254Y018311D02*
X024388Y018311D01*
X023912Y018311D02*
X022518Y018311D01*
X022387Y018180D02*
X022680Y018473D01*
X022680Y018887D01*
X022387Y019180D01*
X021973Y019180D01*
X021680Y018887D01*
X021680Y018473D01*
X021973Y018180D01*
X022387Y018180D01*
X022677Y018470D02*
X023753Y018470D01*
X023650Y018628D02*
X022680Y018628D01*
X022680Y018787D02*
X023650Y018787D01*
X023650Y018945D02*
X022622Y018945D01*
X022464Y019104D02*
X023766Y019104D01*
X023925Y019262D02*
X019212Y019262D01*
X019291Y019104D02*
X021896Y019104D01*
X021738Y018945D02*
X019450Y018945D01*
X019485Y018787D02*
X021680Y018787D01*
X021680Y018628D02*
X019485Y018628D01*
X019485Y018470D02*
X021683Y018470D01*
X021842Y018311D02*
X019346Y018311D01*
X019187Y018153D02*
X025220Y018153D01*
X025185Y017994D02*
X018750Y017994D01*
X018788Y017836D02*
X019072Y017836D01*
X019430Y017430D02*
X018930Y016930D01*
X017805Y016930D01*
X017556Y016726D02*
X017290Y016726D01*
X017290Y016885D02*
X017398Y016885D01*
X016860Y017836D02*
X016615Y017836D01*
X016860Y017994D02*
X015000Y017994D01*
X015000Y017836D02*
X015745Y017836D01*
X015482Y017677D02*
X015000Y017677D01*
X015000Y017519D02*
X015324Y017519D01*
X015219Y017360D02*
X015000Y017360D01*
X015000Y017202D02*
X015137Y017202D01*
X015095Y017043D02*
X015000Y017043D01*
X015000Y016885D02*
X015070Y016885D01*
X015070Y016726D02*
X015000Y016726D01*
X015000Y016568D02*
X015095Y016568D01*
X015137Y016409D02*
X015000Y016409D01*
X015000Y016251D02*
X015219Y016251D01*
X015323Y016092D02*
X015000Y016092D01*
X015000Y015934D02*
X015482Y015934D01*
X015744Y015775D02*
X015000Y015775D01*
X014360Y015775D02*
X012728Y015775D01*
X012886Y015934D02*
X014360Y015934D01*
X014360Y016092D02*
X014292Y016092D01*
X014360Y016160D02*
X014360Y015116D01*
X014409Y014999D01*
X014499Y014909D01*
X015860Y013547D01*
X015860Y013485D01*
X015578Y013485D01*
X015201Y013861D01*
X015111Y013951D01*
X014994Y014000D01*
X012875Y014000D01*
X012755Y014121D01*
X012563Y014200D01*
X012113Y014200D01*
X012093Y014220D01*
X012170Y014220D01*
X012170Y014670D01*
X012190Y014670D01*
X012190Y014690D01*
X012170Y014690D01*
X012170Y015140D01*
X012093Y015140D01*
X013435Y016482D01*
X013435Y016430D01*
X013930Y016430D01*
X013930Y015935D01*
X014135Y015935D01*
X014360Y016160D01*
X013930Y016092D02*
X013930Y016092D01*
X013930Y015935D02*
X013930Y016430D01*
X013930Y016430D01*
X013930Y016430D01*
X013435Y016430D01*
X013435Y016225D01*
X013725Y015935D01*
X013930Y015935D01*
X013930Y016251D02*
X013930Y016251D01*
X013930Y016409D02*
X013930Y016409D01*
X013568Y016092D02*
X013045Y016092D01*
X013203Y016251D02*
X013435Y016251D01*
X013435Y016409D02*
X013362Y016409D01*
X012773Y016726D02*
X012118Y016726D01*
X012118Y016568D02*
X012615Y016568D01*
X012456Y016409D02*
X012108Y016409D01*
X011947Y016251D02*
X012298Y016251D01*
X012139Y016092D02*
X010120Y016092D01*
X010120Y016112D02*
X009862Y016370D01*
X009680Y016370D01*
X009680Y015930D01*
X009680Y015930D01*
X010120Y015930D01*
X010120Y016112D01*
X010120Y015934D02*
X011981Y015934D01*
X011822Y015775D02*
X010120Y015775D01*
X010120Y015748D02*
X010120Y015930D01*
X009680Y015930D01*
X009680Y015930D01*
X009680Y015930D01*
X009240Y015930D01*
X009240Y016112D01*
X009498Y016370D01*
X009680Y016370D01*
X009680Y015930D01*
X009680Y015490D01*
X009862Y015490D01*
X010120Y015748D01*
X009989Y015617D02*
X011664Y015617D01*
X011505Y015458D02*
X009355Y015458D01*
X009498Y015490D02*
X009240Y015748D01*
X009240Y015930D01*
X009680Y015930D01*
X009680Y015930D01*
X009680Y015490D01*
X009498Y015490D01*
X009371Y015617D02*
X009196Y015617D01*
X009240Y015775D02*
X009038Y015775D01*
X009030Y015934D02*
X009240Y015934D01*
X009240Y016092D02*
X009030Y016092D01*
X008997Y016251D02*
X009378Y016251D01*
X009680Y016251D02*
X009680Y016251D01*
X009680Y016092D02*
X009680Y016092D01*
X009680Y015934D02*
X009680Y015934D01*
X009680Y015775D02*
X009680Y015775D01*
X009680Y015617D02*
X009680Y015617D01*
X009513Y015300D02*
X011347Y015300D01*
X011188Y015141D02*
X009672Y015141D01*
X009680Y014680D02*
X008530Y015830D01*
X008530Y016010D01*
X008216Y015617D02*
X007872Y015617D01*
X007826Y015775D02*
X008058Y015775D01*
X008030Y015934D02*
X007779Y015934D01*
X007733Y016092D02*
X008030Y016092D01*
X008063Y016251D02*
X007687Y016251D01*
X007640Y016409D02*
X008222Y016409D01*
X007594Y016568D02*
X011242Y016568D01*
X011252Y016409D02*
X008838Y016409D01*
X008449Y015458D02*
X007919Y015458D01*
X007974Y015300D02*
X008608Y015300D01*
X008766Y015141D02*
X008033Y015141D01*
X008092Y014983D02*
X008925Y014983D01*
X009083Y014824D02*
X008151Y014824D01*
X008210Y014666D02*
X009242Y014666D01*
X009400Y014507D02*
X008269Y014507D01*
X008328Y014349D02*
X011059Y014349D01*
X011217Y014190D02*
X008387Y014190D01*
X008446Y014032D02*
X011376Y014032D01*
X011417Y013873D02*
X008505Y013873D01*
X008564Y013715D02*
X010252Y013715D01*
X009986Y013556D02*
X008629Y013556D01*
X008701Y013398D02*
X009828Y013398D01*
X009721Y013239D02*
X008773Y013239D01*
X008846Y013081D02*
X009638Y013081D01*
X009596Y012922D02*
X008918Y012922D01*
X008990Y012764D02*
X009570Y012764D01*
X009570Y012605D02*
X009063Y012605D01*
X009135Y012447D02*
X009593Y012447D01*
X009636Y012288D02*
X009207Y012288D01*
X009280Y012130D02*
X009716Y012130D01*
X009819Y011971D02*
X009352Y011971D01*
X009433Y011813D02*
X009978Y011813D01*
X010237Y011654D02*
X009519Y011654D01*
X009606Y011496D02*
X011043Y011496D01*
X011123Y011654D02*
X011201Y011654D01*
X010899Y011337D02*
X009692Y011337D01*
X009778Y011179D02*
X010860Y011179D01*
X010860Y011020D02*
X009865Y011020D01*
X009951Y010862D02*
X010860Y010862D01*
X010860Y010703D02*
X010038Y010703D01*
X010124Y010545D02*
X010860Y010545D01*
X010860Y010386D02*
X010211Y010386D01*
X010299Y010228D02*
X010860Y010228D01*
X010860Y010069D02*
X010401Y010069D01*
X010503Y009911D02*
X010860Y009911D01*
X010860Y009752D02*
X010604Y009752D01*
X010706Y009594D02*
X010869Y009594D01*
X010808Y009435D02*
X010972Y009435D01*
X010910Y009277D02*
X011131Y009277D01*
X011012Y009118D02*
X011289Y009118D01*
X011448Y008960D02*
X011113Y008960D01*
X011215Y008801D02*
X013937Y008801D01*
X013998Y008740D02*
X013740Y008998D01*
X013740Y009180D01*
X014180Y009180D01*
X014180Y009180D01*
X014180Y009620D01*
X014362Y009620D01*
X014620Y009362D01*
X014620Y009180D01*
X014180Y009180D01*
X014180Y009180D01*
X014180Y009180D01*
X014180Y009620D01*
X013998Y009620D01*
X013740Y009362D01*
X013740Y009180D01*
X014180Y009180D01*
X014620Y009180D01*
X014620Y008998D01*
X014362Y008740D01*
X014180Y008740D01*
X014180Y009180D01*
X014180Y009180D01*
X014180Y008740D01*
X013998Y008740D01*
X014180Y008801D02*
X014180Y008801D01*
X014180Y008960D02*
X014180Y008960D01*
X014180Y009118D02*
X014180Y009118D01*
X014180Y009277D02*
X014180Y009277D01*
X014180Y009435D02*
X014180Y009435D01*
X014180Y009594D02*
X014180Y009594D01*
X014389Y009594D02*
X014742Y009594D01*
X014742Y009752D02*
X013705Y009752D01*
X013863Y009911D02*
X014742Y009911D01*
X014833Y010069D02*
X013980Y010069D01*
X014000Y010228D02*
X015275Y010228D01*
X015433Y010386D02*
X014089Y010386D01*
X014530Y010545D02*
X015592Y010545D01*
X015750Y010703D02*
X014618Y010703D01*
X014618Y010862D02*
X015860Y010862D01*
X015860Y011020D02*
X014618Y011020D01*
X014617Y011179D02*
X015860Y011179D01*
X015860Y011337D02*
X014501Y011337D01*
X014180Y010930D02*
X013680Y010430D01*
X013680Y010180D01*
X012680Y009180D01*
X011680Y009180D01*
X011180Y009680D01*
X011180Y011180D01*
X012180Y012180D01*
X012430Y012180D01*
X013357Y011654D02*
X015860Y011654D01*
X015860Y011496D02*
X013198Y011496D01*
X013208Y011337D02*
X013859Y011337D01*
X013743Y011179D02*
X013230Y011179D01*
X013207Y011020D02*
X013742Y011020D01*
X013659Y010862D02*
X013127Y010862D01*
X012917Y010703D02*
X013500Y010703D01*
X013381Y010545D02*
X013081Y010545D01*
X013188Y010386D02*
X013360Y010386D01*
X013275Y010228D02*
X013230Y010228D01*
X013546Y009594D02*
X013971Y009594D01*
X013813Y009435D02*
X013388Y009435D01*
X013229Y009277D02*
X013740Y009277D01*
X013740Y009118D02*
X013071Y009118D01*
X012912Y008960D02*
X013778Y008960D01*
X014423Y008801D02*
X015853Y008801D01*
X015678Y008960D02*
X014582Y008960D01*
X014620Y009118D02*
X015598Y009118D01*
X015560Y009277D02*
X015509Y009277D01*
X015618Y009594D02*
X015619Y009594D01*
X015705Y009752D02*
X015729Y009752D01*
X015863Y009911D02*
X015977Y009911D01*
X016022Y010069D02*
X018383Y010069D01*
X018380Y010228D02*
X016180Y010228D01*
X016339Y010386D02*
X018422Y010386D01*
X018529Y010545D02*
X016470Y010545D01*
X016500Y010703D02*
X018693Y010703D01*
X018483Y010862D02*
X016500Y010862D01*
X016500Y011020D02*
X018403Y011020D01*
X018380Y011179D02*
X016500Y011179D01*
X016500Y011337D02*
X018402Y011337D01*
X018480Y011496D02*
X016500Y011496D01*
X016500Y011654D02*
X018686Y011654D01*
X018532Y011813D02*
X016500Y011813D01*
X016500Y011971D02*
X018424Y011971D01*
X018380Y012130D02*
X016500Y012130D01*
X016500Y012288D02*
X018382Y012288D01*
X018086Y013239D02*
X017071Y013239D01*
X016180Y013680D02*
X014680Y015180D01*
X014680Y018180D01*
X015680Y019180D01*
X016180Y019180D01*
X016618Y019104D02*
X017649Y019104D01*
X017860Y019262D02*
X016618Y019262D01*
X016618Y019421D02*
X017860Y019421D01*
X017860Y019579D02*
X016517Y019579D01*
X016516Y020045D02*
X016305Y020045D01*
X016305Y020555D01*
X016305Y020555D01*
X016305Y021065D01*
X016516Y021065D01*
X016815Y020766D01*
X016815Y020555D01*
X016305Y020555D01*
X016305Y020555D01*
X016305Y020555D01*
X015795Y020555D01*
X015795Y020766D01*
X016094Y021065D01*
X016305Y021065D01*
X016305Y020555D01*
X016815Y020555D01*
X016815Y020344D01*
X016516Y020045D01*
X016526Y020055D02*
X017860Y020055D01*
X017860Y019896D02*
X014164Y019896D01*
X014323Y019738D02*
X017860Y019738D01*
X017690Y020213D02*
X016684Y020213D01*
X016815Y020372D02*
X017531Y020372D01*
X017430Y020530D02*
X016815Y020530D01*
X016815Y020689D02*
X017430Y020689D01*
X017430Y020847D02*
X016734Y020847D01*
X016576Y021006D02*
X017409Y021006D01*
X017555Y021430D02*
X014680Y021430D01*
X014680Y020930D01*
X014430Y020680D01*
X013930Y020689D02*
X013315Y020689D01*
X013315Y020766D02*
X013016Y021065D01*
X012805Y021065D01*
X012805Y020555D01*
X012805Y020555D01*
X013315Y020555D01*
X013315Y020766D01*
X013234Y020847D02*
X013930Y020847D01*
X014048Y021006D02*
X013076Y021006D01*
X012805Y021006D02*
X012805Y021006D01*
X012805Y021065D02*
X012594Y021065D01*
X012295Y020766D01*
X012295Y020555D01*
X012805Y020555D01*
X012805Y020555D01*
X012805Y020555D01*
X012805Y021065D01*
X012805Y020847D02*
X012805Y020847D01*
X012805Y020689D02*
X012805Y020689D01*
X012805Y020555D02*
X012295Y020555D01*
X012295Y020344D01*
X012594Y020045D01*
X012805Y020045D01*
X013016Y020045D01*
X013315Y020344D01*
X013315Y020555D01*
X012805Y020555D01*
X012805Y020045D01*
X012805Y020555D01*
X012805Y020555D01*
X012805Y020530D02*
X012805Y020530D01*
X012805Y020372D02*
X012805Y020372D01*
X012805Y020213D02*
X012805Y020213D01*
X012805Y020055D02*
X012805Y020055D01*
X013026Y020055D02*
X016084Y020055D01*
X016094Y020045D02*
X015795Y020344D01*
X015795Y020555D01*
X016305Y020555D01*
X016305Y020555D01*
X016305Y020045D01*
X016094Y020045D01*
X016305Y020055D02*
X016305Y020055D01*
X016305Y020213D02*
X016305Y020213D01*
X016305Y020372D02*
X016305Y020372D01*
X016305Y020530D02*
X016305Y020530D01*
X016305Y020689D02*
X016305Y020689D01*
X016305Y020847D02*
X016305Y020847D01*
X016305Y021006D02*
X016305Y021006D01*
X016034Y021006D02*
X015000Y021006D01*
X014992Y020847D02*
X015876Y020847D01*
X015795Y020689D02*
X014930Y020689D01*
X014930Y020530D02*
X015795Y020530D01*
X015795Y020372D02*
X014829Y020372D01*
X014670Y020213D02*
X015926Y020213D01*
X015843Y019579D02*
X014425Y019579D01*
X014425Y019421D02*
X015468Y019421D01*
X015309Y019262D02*
X014425Y019262D01*
X014304Y019104D02*
X015151Y019104D01*
X014992Y018945D02*
X014200Y018945D01*
X014358Y018787D02*
X014834Y018787D01*
X014675Y018628D02*
X014485Y018628D01*
X014485Y018470D02*
X014517Y018470D01*
X015105Y018153D02*
X015848Y018153D01*
X015742Y018311D02*
X015264Y018311D01*
X015422Y018470D02*
X015742Y018470D01*
X015742Y018628D02*
X015581Y018628D01*
X015739Y018787D02*
X015742Y018787D01*
X016512Y018153D02*
X016860Y018153D01*
X018430Y018180D02*
X018430Y017430D01*
X018430Y018180D02*
X018930Y018680D01*
X019788Y017836D02*
X020072Y017836D01*
X020430Y017430D02*
X022500Y017430D01*
X022965Y016965D01*
X022527Y016885D02*
X020739Y016885D01*
X020807Y017043D02*
X022434Y017043D01*
X022864Y017519D02*
X025082Y017519D01*
X025117Y017677D02*
X022706Y017677D01*
X023306Y017360D02*
X025048Y017360D01*
X025012Y017202D02*
X023403Y017202D01*
X023403Y017043D02*
X024965Y017043D01*
X024919Y016885D02*
X023403Y016885D01*
X023403Y016726D02*
X024873Y016726D01*
X024826Y016568D02*
X023303Y016568D01*
X023755Y016092D02*
X022390Y016092D01*
X022362Y016120D02*
X022180Y016120D01*
X022180Y015680D01*
X022180Y015680D01*
X022620Y015680D01*
X022620Y015862D01*
X022362Y016120D01*
X022180Y016120D02*
X022180Y015680D01*
X022180Y015680D01*
X022180Y015680D01*
X021740Y015680D01*
X021740Y015862D01*
X021998Y016120D01*
X022180Y016120D01*
X022180Y016092D02*
X022180Y016092D01*
X022180Y015934D02*
X022180Y015934D01*
X022180Y015775D02*
X022180Y015775D01*
X022180Y015680D02*
X021740Y015680D01*
X021740Y015498D01*
X021998Y015240D01*
X022180Y015240D01*
X022362Y015240D01*
X022620Y015498D01*
X022620Y015680D01*
X022180Y015680D01*
X022180Y015240D01*
X022180Y015680D01*
X022180Y015680D01*
X022180Y015617D02*
X022180Y015617D01*
X022180Y015458D02*
X022180Y015458D01*
X022180Y015300D02*
X022180Y015300D01*
X022422Y015300D02*
X023923Y015300D01*
X023765Y015458D02*
X022580Y015458D01*
X022620Y015617D02*
X023650Y015617D01*
X023650Y015775D02*
X022620Y015775D01*
X022549Y015934D02*
X023650Y015934D01*
X023913Y016251D02*
X020970Y016251D01*
X020970Y016409D02*
X024780Y016409D01*
X024733Y016251D02*
X024387Y016251D01*
X024545Y016092D02*
X024687Y016092D01*
X024446Y015300D02*
X024377Y015300D01*
X024387Y015141D02*
X019750Y015141D01*
X019752Y015300D02*
X021938Y015300D01*
X021780Y015458D02*
X019911Y015458D01*
X020069Y015617D02*
X021740Y015617D01*
X021740Y015775D02*
X020228Y015775D01*
X020697Y015934D02*
X021811Y015934D01*
X021970Y016092D02*
X020856Y016092D01*
X020430Y016430D02*
X019430Y015430D01*
X019430Y013930D01*
X019180Y013680D01*
X018430Y013680D01*
X018863Y014032D02*
X019079Y014032D01*
X019110Y014190D02*
X018705Y014190D01*
X018799Y014349D02*
X019110Y014349D01*
X019110Y014507D02*
X018925Y014507D01*
X018925Y014666D02*
X019110Y014666D01*
X019110Y014824D02*
X018925Y014824D01*
X018828Y014983D02*
X019110Y014983D01*
X019110Y015141D02*
X018669Y015141D01*
X018430Y015141D02*
X018430Y015141D01*
X018430Y014983D02*
X018430Y014983D01*
X018430Y014824D02*
X018430Y014824D01*
X019750Y014190D02*
X019772Y014190D01*
X020190Y014220D02*
X020190Y014670D01*
X020920Y014670D01*
X020920Y014644D01*
X020909Y014572D01*
X020886Y014503D01*
X020853Y014439D01*
X020811Y014380D01*
X020760Y014329D01*
X020701Y014287D01*
X020637Y014254D01*
X020568Y014231D01*
X020496Y014220D01*
X020190Y014220D01*
X020190Y014349D02*
X020170Y014349D01*
X020170Y014507D02*
X020190Y014507D01*
X020190Y014666D02*
X020170Y014666D01*
X020190Y014690D02*
X020920Y014690D01*
X020920Y014716D01*
X020909Y014788D01*
X020886Y014857D01*
X020853Y014921D01*
X020811Y014980D01*
X020760Y015031D01*
X020701Y015073D01*
X020637Y015106D01*
X020568Y015129D01*
X020496Y015140D01*
X020190Y015140D01*
X020190Y014690D01*
X020190Y014824D02*
X020170Y014824D01*
X020170Y014983D02*
X020190Y014983D01*
X020808Y014983D02*
X024328Y014983D01*
X024269Y014824D02*
X020897Y014824D01*
X020920Y014666D02*
X024210Y014666D01*
X024151Y014507D02*
X020887Y014507D01*
X020779Y014349D02*
X024092Y014349D01*
X024033Y014190D02*
X020588Y014190D01*
X020844Y014032D02*
X023974Y014032D01*
X021362Y011654D02*
X019674Y011654D01*
X019828Y011813D02*
X021103Y011813D01*
X020944Y011971D02*
X019936Y011971D01*
X019980Y012130D02*
X020841Y012130D01*
X020761Y012288D02*
X019978Y012288D01*
X019912Y012447D02*
X020718Y012447D01*
X020695Y012605D02*
X019770Y012605D01*
X019606Y013239D02*
X018774Y013239D01*
X019334Y013398D02*
X019454Y013398D01*
X016180Y013680D02*
X016180Y010680D01*
X015180Y009680D01*
X014851Y009277D02*
X014620Y009277D01*
X014547Y009435D02*
X014742Y009435D01*
X016363Y009911D02*
X018449Y009911D01*
X018593Y009752D02*
X016611Y009752D01*
X016721Y009594D02*
X017766Y009594D01*
X017608Y009435D02*
X016780Y009435D01*
X016780Y009277D02*
X017580Y009277D01*
X017580Y009118D02*
X016742Y009118D01*
X016662Y008960D02*
X017613Y008960D01*
X017772Y008801D02*
X016487Y008801D01*
X018405Y006582D02*
X019495Y006582D01*
X019358Y006424D02*
X018564Y006424D01*
X018580Y006265D02*
X019220Y006265D01*
X019083Y006107D02*
X018580Y006107D01*
X018535Y005948D02*
X018946Y005948D01*
X018808Y005790D02*
X018377Y005790D01*
X018664Y005631D02*
X013756Y005631D01*
X013863Y005790D02*
X013612Y005790D01*
X013705Y005948D02*
X013474Y005948D01*
X013337Y006107D02*
X013680Y006107D01*
X013680Y006265D02*
X013200Y006265D01*
X013062Y006424D02*
X013716Y006424D01*
X013875Y006582D02*
X012925Y006582D01*
X013909Y005473D02*
X018511Y005473D01*
X018358Y005314D02*
X014062Y005314D01*
X012430Y011180D02*
X013680Y012430D01*
X013680Y013180D01*
X014000Y012764D02*
X015125Y012764D01*
X015125Y012922D02*
X014113Y012922D01*
X014118Y013081D02*
X015077Y013081D01*
X014918Y013239D02*
X014118Y013239D01*
X014000Y012605D02*
X015220Y012605D01*
X015379Y012447D02*
X014000Y012447D01*
X013968Y012288D02*
X015860Y012288D01*
X015860Y012130D02*
X013832Y012130D01*
X013674Y011971D02*
X015860Y011971D01*
X015860Y011813D02*
X013515Y011813D01*
X014930Y013680D02*
X015680Y012930D01*
X015851Y013556D02*
X015507Y013556D01*
X015348Y013715D02*
X015693Y013715D01*
X015534Y013873D02*
X015190Y013873D01*
X015376Y014032D02*
X012844Y014032D01*
X012701Y014287D02*
X012760Y014329D01*
X012811Y014380D01*
X012853Y014439D01*
X012886Y014503D01*
X012909Y014572D01*
X012920Y014644D01*
X012920Y014670D01*
X012190Y014670D01*
X012190Y014220D01*
X012496Y014220D01*
X012568Y014231D01*
X012637Y014254D01*
X012701Y014287D01*
X012779Y014349D02*
X015059Y014349D01*
X014900Y014507D02*
X012887Y014507D01*
X012920Y014666D02*
X014742Y014666D01*
X014583Y014824D02*
X012897Y014824D01*
X012886Y014857D02*
X012853Y014921D01*
X012811Y014980D01*
X012760Y015031D01*
X012701Y015073D01*
X012637Y015106D01*
X012568Y015129D01*
X012496Y015140D01*
X012190Y015140D01*
X012190Y014690D01*
X012920Y014690D01*
X012920Y014716D01*
X012909Y014788D01*
X012886Y014857D01*
X012808Y014983D02*
X014425Y014983D01*
X014360Y015141D02*
X012094Y015141D01*
X012170Y014983D02*
X012190Y014983D01*
X012190Y014824D02*
X012170Y014824D01*
X012170Y014666D02*
X012190Y014666D01*
X012190Y014507D02*
X012170Y014507D01*
X012170Y014349D02*
X012190Y014349D01*
X012588Y014190D02*
X015217Y014190D01*
X014930Y013680D02*
X012180Y013680D01*
X011180Y014680D01*
X013930Y017430D01*
X013551Y017836D02*
X011500Y017836D01*
X011500Y017994D02*
X013581Y017994D01*
X013423Y018153D02*
X011500Y018153D01*
X011500Y018311D02*
X013375Y018311D01*
X013375Y018470D02*
X011500Y018470D01*
X011500Y018628D02*
X013375Y018628D01*
X013502Y018787D02*
X011500Y018787D01*
X011500Y018945D02*
X013660Y018945D01*
X013556Y019104D02*
X011585Y019104D01*
X011618Y019262D02*
X013435Y019262D01*
X013435Y019421D02*
X011618Y019421D01*
X011618Y019579D02*
X013435Y019579D01*
X013537Y019738D02*
X011593Y019738D01*
X011500Y019896D02*
X013696Y019896D01*
X013930Y019896D02*
X013930Y019896D01*
X013930Y019738D02*
X013930Y019738D01*
X013930Y019579D02*
X013930Y019579D01*
X014190Y020213D02*
X013184Y020213D01*
X013315Y020372D02*
X014031Y020372D01*
X013930Y020530D02*
X013315Y020530D01*
X012584Y020055D02*
X011500Y020055D01*
X011500Y020213D02*
X012426Y020213D01*
X012295Y020372D02*
X011579Y020372D01*
X011680Y020530D02*
X012295Y020530D01*
X012295Y020689D02*
X011680Y020689D01*
X011680Y020847D02*
X012376Y020847D01*
X012534Y021006D02*
X011562Y021006D01*
X011180Y020680D02*
X011180Y019430D01*
X011180Y018930D02*
X011180Y017180D01*
X011680Y016680D01*
X011181Y016726D02*
X007547Y016726D01*
X007501Y016885D02*
X011023Y016885D01*
X010890Y017043D02*
X007455Y017043D01*
X007408Y017202D02*
X010860Y017202D01*
X010860Y017360D02*
X007372Y017360D01*
X007338Y017519D02*
X010860Y017519D01*
X010860Y017677D02*
X007303Y017677D01*
X007269Y017836D02*
X010860Y017836D01*
X010860Y017994D02*
X007235Y017994D01*
X007200Y018153D02*
X010860Y018153D01*
X010860Y018311D02*
X007166Y018311D01*
X007132Y018470D02*
X009433Y018470D01*
X009275Y018628D02*
X008855Y018628D01*
X008737Y018510D02*
X009030Y018803D01*
X009030Y019217D01*
X008850Y019397D01*
X008850Y019697D01*
X008987Y019834D01*
X009080Y020059D01*
X009080Y020301D01*
X008987Y020526D01*
X008816Y020697D01*
X008591Y020790D01*
X008349Y020790D01*
X008124Y020697D01*
X007953Y020526D01*
X007933Y020478D01*
X007890Y020538D01*
X007828Y020600D01*
X007758Y020650D01*
X007681Y020690D01*
X007599Y020716D01*
X007513Y020730D01*
X007470Y020730D01*
X007470Y020180D01*
X007470Y020180D01*
X007470Y019630D01*
X007513Y019630D01*
X007599Y019644D01*
X007681Y019670D01*
X007758Y019710D01*
X007828Y019760D01*
X007890Y019822D01*
X007933Y019882D01*
X007953Y019834D01*
X008124Y019663D01*
X008210Y019627D01*
X008210Y019397D01*
X008030Y019217D01*
X008030Y018803D01*
X008323Y018510D01*
X008737Y018510D01*
X009014Y018787D02*
X009180Y018787D01*
X009180Y018945D02*
X009030Y018945D01*
X009030Y019104D02*
X009180Y019104D01*
X009305Y019262D02*
X008985Y019262D01*
X008850Y019421D02*
X009360Y019421D01*
X009360Y019579D02*
X008850Y019579D01*
X008890Y019738D02*
X009360Y019738D01*
X009360Y019896D02*
X009013Y019896D01*
X009078Y020055D02*
X009360Y020055D01*
X009360Y020213D02*
X009080Y020213D01*
X009051Y020372D02*
X009360Y020372D01*
X009360Y020530D02*
X008983Y020530D01*
X008824Y020689D02*
X009360Y020689D01*
X009310Y020847D02*
X006855Y020847D01*
X006855Y020689D02*
X007257Y020689D01*
X007259Y020690D02*
X007182Y020650D01*
X007112Y020600D01*
X007050Y020538D01*
X007000Y020468D01*
X006960Y020391D01*
X006934Y020309D01*
X006920Y020223D01*
X006920Y020180D01*
X007470Y020180D01*
X007470Y020180D01*
X007470Y020180D01*
X007470Y020730D01*
X007427Y020730D01*
X007341Y020716D01*
X007259Y020690D01*
X007470Y020689D02*
X007470Y020689D01*
X007470Y020530D02*
X007470Y020530D01*
X007470Y020372D02*
X007470Y020372D01*
X007470Y020213D02*
X007470Y020213D01*
X007470Y020180D02*
X006920Y020180D01*
X006920Y020137D01*
X006934Y020051D01*
X006960Y019969D01*
X007000Y019892D01*
X007050Y019822D01*
X007112Y019760D01*
X007182Y019710D01*
X007259Y019670D01*
X007341Y019644D01*
X007427Y019630D01*
X007470Y019630D01*
X007470Y020180D01*
X007470Y020055D02*
X007470Y020055D01*
X007470Y019896D02*
X007470Y019896D01*
X007470Y019738D02*
X007470Y019738D01*
X007797Y019738D02*
X008050Y019738D01*
X008210Y019579D02*
X006919Y019579D01*
X006894Y019738D02*
X007143Y019738D01*
X006997Y019896D02*
X006868Y019896D01*
X006855Y020055D02*
X006933Y020055D01*
X006920Y020213D02*
X006855Y020213D01*
X006855Y020372D02*
X006954Y020372D01*
X007044Y020530D02*
X006855Y020530D01*
X006855Y021006D02*
X009152Y021006D01*
X008993Y021164D02*
X006855Y021164D01*
X006855Y021323D02*
X007580Y021323D01*
X007430Y021481D02*
X006855Y021481D01*
X006855Y021640D02*
X007430Y021640D01*
X007430Y021798D02*
X006855Y021798D01*
X006855Y021957D02*
X007499Y021957D01*
X007658Y022115D02*
X006855Y022115D01*
X006855Y022274D02*
X007629Y022274D01*
X007530Y022432D02*
X006855Y022432D01*
X006855Y022591D02*
X007530Y022591D01*
X007530Y022749D02*
X006855Y022749D01*
X006855Y022908D02*
X007650Y022908D01*
X007809Y023066D02*
X006855Y023066D01*
X006855Y023225D02*
X010928Y023225D01*
X010770Y023383D02*
X006855Y023383D01*
X006855Y023542D02*
X010680Y023542D01*
X010680Y023700D02*
X006855Y023700D01*
X006855Y023859D02*
X010680Y023859D01*
X011432Y023225D02*
X012329Y023225D01*
X012235Y023383D02*
X011590Y023383D01*
X011680Y023542D02*
X012235Y023542D01*
X012235Y023700D02*
X011680Y023700D01*
X011680Y023859D02*
X012302Y023859D01*
X012488Y023066D02*
X008251Y023066D01*
X008130Y022680D02*
X008030Y022580D01*
X008130Y022680D02*
X009680Y022680D01*
X011055Y021430D01*
X011180Y021430D01*
X014680Y021430D01*
X015756Y021798D02*
X013354Y021798D01*
X013375Y021957D02*
X015735Y021957D01*
X015735Y022115D02*
X013375Y022115D01*
X013375Y022274D02*
X015735Y022274D01*
X015876Y022432D02*
X013234Y022432D01*
X013076Y022591D02*
X016034Y022591D01*
X015988Y023066D02*
X013122Y023066D01*
X013281Y023225D02*
X014178Y023225D01*
X014020Y023383D02*
X013375Y023383D01*
X013375Y023542D02*
X013930Y023542D01*
X013930Y023700D02*
X013375Y023700D01*
X013308Y023859D02*
X013930Y023859D01*
X014430Y023680D02*
X014680Y023680D01*
X014969Y023542D02*
X015735Y023542D01*
X015735Y023700D02*
X015000Y023700D01*
X014952Y023859D02*
X015802Y023859D01*
X015735Y023383D02*
X014840Y023383D01*
X014682Y023225D02*
X015829Y023225D01*
X016622Y023066D02*
X019488Y023066D01*
X019329Y023225D02*
X018182Y023225D01*
X018340Y023383D02*
X019235Y023383D01*
X019235Y023542D02*
X018430Y023542D01*
X018430Y023700D02*
X019235Y023700D01*
X019302Y023859D02*
X018430Y023859D01*
X017678Y023225D02*
X016781Y023225D01*
X016875Y023383D02*
X017520Y023383D01*
X017430Y023542D02*
X016875Y023542D01*
X016875Y023700D02*
X017430Y023700D01*
X017430Y023859D02*
X016808Y023859D01*
X016576Y022591D02*
X019534Y022591D01*
X019376Y022432D02*
X016734Y022432D01*
X016875Y022274D02*
X019235Y022274D01*
X019235Y022115D02*
X016875Y022115D01*
X016875Y021957D02*
X019235Y021957D01*
X019256Y021798D02*
X016854Y021798D01*
X017555Y021430D02*
X017930Y020680D01*
X018312Y021006D02*
X018553Y021006D01*
X018711Y021164D02*
X018153Y021164D01*
X017967Y021323D02*
X018870Y021323D01*
X019028Y021481D02*
X017887Y021481D01*
X017802Y021640D02*
X019187Y021640D01*
X019458Y021006D02*
X019534Y021006D01*
X019376Y020847D02*
X019300Y020847D01*
X019295Y020689D02*
X019141Y020689D01*
X019295Y020530D02*
X018983Y020530D01*
X018824Y020372D02*
X019295Y020372D01*
X019426Y020213D02*
X018666Y020213D01*
X018604Y020055D02*
X018507Y020055D01*
X018930Y020055D02*
X018930Y020055D01*
X018930Y019896D02*
X018930Y019896D01*
X018930Y019738D02*
X018930Y019738D01*
X019256Y020055D02*
X019584Y020055D01*
X020184Y020213D02*
X022970Y020213D01*
X023026Y020372D02*
X020315Y020372D01*
X020315Y020530D02*
X023132Y020530D01*
X023371Y020689D02*
X020315Y020689D01*
X020234Y020847D02*
X025565Y020847D01*
X025565Y020689D02*
X023789Y020689D01*
X024028Y020530D02*
X024217Y020530D01*
X024330Y021323D02*
X025565Y021323D01*
X025565Y021481D02*
X024488Y021481D01*
X024580Y021640D02*
X025565Y021640D01*
X025565Y021798D02*
X024580Y021798D01*
X024580Y021957D02*
X025565Y021957D01*
X025565Y022115D02*
X024452Y022115D01*
X024481Y022274D02*
X025565Y022274D01*
X025565Y022432D02*
X024639Y022432D01*
X024680Y022591D02*
X025565Y022591D01*
X025565Y022749D02*
X024680Y022749D01*
X024660Y022908D02*
X025565Y022908D01*
X025565Y023066D02*
X024501Y023066D01*
X023859Y023066D02*
X023501Y023066D01*
X023660Y022908D02*
X023700Y022908D01*
X023680Y022887D02*
X023680Y022887D01*
X023059Y023066D02*
X020122Y023066D01*
X020281Y023225D02*
X025565Y023225D01*
X025565Y023383D02*
X020375Y023383D01*
X020375Y023542D02*
X025565Y023542D01*
X025565Y023700D02*
X020375Y023700D01*
X020308Y023859D02*
X025565Y023859D01*
X022900Y022908D02*
X009905Y022908D01*
X010080Y022749D02*
X022780Y022749D01*
X022780Y022591D02*
X020076Y022591D01*
X020788Y017836D02*
X025151Y017836D01*
X022627Y016568D02*
X020970Y016568D01*
X020898Y016726D02*
X022527Y016726D01*
X014360Y015617D02*
X012569Y015617D01*
X012411Y015458D02*
X014360Y015458D01*
X014360Y015300D02*
X012252Y015300D01*
X011180Y014680D02*
X009680Y014680D01*
X011108Y013715D02*
X011380Y013715D01*
X011374Y013556D02*
X011389Y013556D01*
X011413Y016251D02*
X009982Y016251D01*
X011500Y017360D02*
X013375Y017360D01*
X013375Y017519D02*
X011500Y017519D01*
X011500Y017677D02*
X013392Y017677D01*
X013249Y017202D02*
X011611Y017202D01*
X012053Y017043D02*
X013090Y017043D01*
X012932Y016885D02*
X012118Y016885D01*
X010860Y018470D02*
X009927Y018470D01*
X009680Y018930D02*
X011180Y018930D01*
X009680Y018930D02*
X009680Y020930D01*
X008830Y021780D01*
X008430Y021473D02*
X008430Y021473D01*
X008280Y021323D02*
X008580Y021323D01*
X008116Y020689D02*
X007683Y020689D01*
X007896Y020530D02*
X007957Y020530D01*
X008470Y020180D02*
X008530Y020120D01*
X008530Y019010D01*
X008205Y018628D02*
X007097Y018628D01*
X007063Y018787D02*
X008046Y018787D01*
X008030Y018945D02*
X007029Y018945D01*
X006996Y019104D02*
X008030Y019104D01*
X008075Y019262D02*
X006970Y019262D01*
X006945Y019421D02*
X008210Y019421D01*
X011180Y020680D02*
X011180Y021430D01*
X011126Y021798D02*
X012256Y021798D01*
X012235Y021957D02*
X010952Y021957D01*
X010777Y022115D02*
X012235Y022115D01*
X012235Y022274D02*
X010603Y022274D01*
X010428Y022432D02*
X012376Y022432D01*
X012534Y022591D02*
X010254Y022591D01*
D18*
X011180Y019430D03*
X011680Y016680D03*
X013680Y013180D03*
X014180Y010930D03*
X015180Y009680D03*
X022965Y016965D03*
X017930Y018680D03*
X016180Y018555D03*
X016180Y019180D03*
M02*
