G75*
%MOIN*%
%OFA0B0*%
%FSLAX24Y24*%
%IPPOS*%
%LPD*%
%AMOC8*
5,1,8,0,0,1.08239X$1,22.5*
%
%ADD10C,0.0010*%
%ADD11C,0.0000*%
%ADD12C,0.0740*%
%ADD13OC8,0.0520*%
%ADD14R,0.0866X0.0236*%
%ADD15OC8,0.0660*%
%ADD16OC8,0.0630*%
%ADD17C,0.0600*%
%ADD18OC8,0.0600*%
%ADD19C,0.0560*%
%ADD20C,0.0160*%
%ADD21R,0.0396X0.0396*%
D10*
X014000Y004680D02*
X018420Y004680D01*
X026050Y019940D02*
X026050Y024360D01*
X006370Y024360D01*
X006370Y019940D01*
X018420Y004680D02*
X018869Y005140D01*
X019307Y005611D01*
X019734Y006092D01*
X020149Y006582D01*
X020552Y007083D01*
X020944Y007593D01*
X021323Y008113D01*
X021689Y008641D01*
X022043Y009178D01*
X022384Y009723D01*
X022712Y010276D01*
X023026Y010836D01*
X023328Y011404D01*
X023615Y011979D01*
X023889Y012561D01*
X024149Y013149D01*
X024394Y013743D01*
X024626Y014343D01*
X024843Y014948D01*
X025046Y015558D01*
X025234Y016173D01*
X025407Y016792D01*
X025565Y017415D01*
X025709Y018042D01*
X025838Y018672D01*
X025951Y019305D01*
X026050Y019940D01*
X014000Y004680D02*
X013551Y005140D01*
X013113Y005611D01*
X012686Y006092D01*
X012271Y006582D01*
X011868Y007083D01*
X011476Y007593D01*
X011097Y008113D01*
X010731Y008641D01*
X010377Y009178D01*
X010036Y009723D01*
X009708Y010276D01*
X009394Y010836D01*
X009092Y011404D01*
X008805Y011979D01*
X008531Y012561D01*
X008271Y013149D01*
X008026Y013743D01*
X007794Y014343D01*
X007577Y014948D01*
X007374Y015558D01*
X007186Y016173D01*
X007013Y016792D01*
X006855Y017415D01*
X006711Y018042D01*
X006582Y018672D01*
X006469Y019305D01*
X006370Y019940D01*
D11*
X010050Y012680D02*
X010052Y012730D01*
X010058Y012780D01*
X010068Y012829D01*
X010082Y012877D01*
X010099Y012924D01*
X010120Y012969D01*
X010145Y013013D01*
X010173Y013054D01*
X010205Y013093D01*
X010239Y013130D01*
X010276Y013164D01*
X010316Y013194D01*
X010358Y013221D01*
X010402Y013245D01*
X010448Y013266D01*
X010495Y013282D01*
X010543Y013295D01*
X010593Y013304D01*
X010642Y013309D01*
X010693Y013310D01*
X010743Y013307D01*
X010792Y013300D01*
X010841Y013289D01*
X010889Y013274D01*
X010935Y013256D01*
X010980Y013234D01*
X011023Y013208D01*
X011064Y013179D01*
X011103Y013147D01*
X011139Y013112D01*
X011171Y013074D01*
X011201Y013034D01*
X011228Y012991D01*
X011251Y012947D01*
X011270Y012901D01*
X011286Y012853D01*
X011298Y012804D01*
X011306Y012755D01*
X011310Y012705D01*
X011310Y012655D01*
X011306Y012605D01*
X011298Y012556D01*
X011286Y012507D01*
X011270Y012459D01*
X011251Y012413D01*
X011228Y012369D01*
X011201Y012326D01*
X011171Y012286D01*
X011139Y012248D01*
X011103Y012213D01*
X011064Y012181D01*
X011023Y012152D01*
X010980Y012126D01*
X010935Y012104D01*
X010889Y012086D01*
X010841Y012071D01*
X010792Y012060D01*
X010743Y012053D01*
X010693Y012050D01*
X010642Y012051D01*
X010593Y012056D01*
X010543Y012065D01*
X010495Y012078D01*
X010448Y012094D01*
X010402Y012115D01*
X010358Y012139D01*
X010316Y012166D01*
X010276Y012196D01*
X010239Y012230D01*
X010205Y012267D01*
X010173Y012306D01*
X010145Y012347D01*
X010120Y012391D01*
X010099Y012436D01*
X010082Y012483D01*
X010068Y012531D01*
X010058Y012580D01*
X010052Y012630D01*
X010050Y012680D01*
X015550Y016805D02*
X015552Y016855D01*
X015558Y016905D01*
X015568Y016954D01*
X015582Y017002D01*
X015599Y017049D01*
X015620Y017094D01*
X015645Y017138D01*
X015673Y017179D01*
X015705Y017218D01*
X015739Y017255D01*
X015776Y017289D01*
X015816Y017319D01*
X015858Y017346D01*
X015902Y017370D01*
X015948Y017391D01*
X015995Y017407D01*
X016043Y017420D01*
X016093Y017429D01*
X016142Y017434D01*
X016193Y017435D01*
X016243Y017432D01*
X016292Y017425D01*
X016341Y017414D01*
X016389Y017399D01*
X016435Y017381D01*
X016480Y017359D01*
X016523Y017333D01*
X016564Y017304D01*
X016603Y017272D01*
X016639Y017237D01*
X016671Y017199D01*
X016701Y017159D01*
X016728Y017116D01*
X016751Y017072D01*
X016770Y017026D01*
X016786Y016978D01*
X016798Y016929D01*
X016806Y016880D01*
X016810Y016830D01*
X016810Y016780D01*
X016806Y016730D01*
X016798Y016681D01*
X016786Y016632D01*
X016770Y016584D01*
X016751Y016538D01*
X016728Y016494D01*
X016701Y016451D01*
X016671Y016411D01*
X016639Y016373D01*
X016603Y016338D01*
X016564Y016306D01*
X016523Y016277D01*
X016480Y016251D01*
X016435Y016229D01*
X016389Y016211D01*
X016341Y016196D01*
X016292Y016185D01*
X016243Y016178D01*
X016193Y016175D01*
X016142Y016176D01*
X016093Y016181D01*
X016043Y016190D01*
X015995Y016203D01*
X015948Y016219D01*
X015902Y016240D01*
X015858Y016264D01*
X015816Y016291D01*
X015776Y016321D01*
X015739Y016355D01*
X015705Y016392D01*
X015673Y016431D01*
X015645Y016472D01*
X015620Y016516D01*
X015599Y016561D01*
X015582Y016608D01*
X015568Y016656D01*
X015558Y016705D01*
X015552Y016755D01*
X015550Y016805D01*
X021175Y012680D02*
X021177Y012730D01*
X021183Y012780D01*
X021193Y012829D01*
X021207Y012877D01*
X021224Y012924D01*
X021245Y012969D01*
X021270Y013013D01*
X021298Y013054D01*
X021330Y013093D01*
X021364Y013130D01*
X021401Y013164D01*
X021441Y013194D01*
X021483Y013221D01*
X021527Y013245D01*
X021573Y013266D01*
X021620Y013282D01*
X021668Y013295D01*
X021718Y013304D01*
X021767Y013309D01*
X021818Y013310D01*
X021868Y013307D01*
X021917Y013300D01*
X021966Y013289D01*
X022014Y013274D01*
X022060Y013256D01*
X022105Y013234D01*
X022148Y013208D01*
X022189Y013179D01*
X022228Y013147D01*
X022264Y013112D01*
X022296Y013074D01*
X022326Y013034D01*
X022353Y012991D01*
X022376Y012947D01*
X022395Y012901D01*
X022411Y012853D01*
X022423Y012804D01*
X022431Y012755D01*
X022435Y012705D01*
X022435Y012655D01*
X022431Y012605D01*
X022423Y012556D01*
X022411Y012507D01*
X022395Y012459D01*
X022376Y012413D01*
X022353Y012369D01*
X022326Y012326D01*
X022296Y012286D01*
X022264Y012248D01*
X022228Y012213D01*
X022189Y012181D01*
X022148Y012152D01*
X022105Y012126D01*
X022060Y012104D01*
X022014Y012086D01*
X021966Y012071D01*
X021917Y012060D01*
X021868Y012053D01*
X021818Y012050D01*
X021767Y012051D01*
X021718Y012056D01*
X021668Y012065D01*
X021620Y012078D01*
X021573Y012094D01*
X021527Y012115D01*
X021483Y012139D01*
X021441Y012166D01*
X021401Y012196D01*
X021364Y012230D01*
X021330Y012267D01*
X021298Y012306D01*
X021270Y012347D01*
X021245Y012391D01*
X021224Y012436D01*
X021207Y012483D01*
X021193Y012531D01*
X021183Y012580D01*
X021177Y012630D01*
X021175Y012680D01*
D12*
X016170Y009330D03*
X016170Y008330D03*
X023580Y020115D03*
X024580Y020115D03*
X008470Y020180D03*
X007470Y020180D03*
D13*
X008530Y019010D03*
X009680Y018930D03*
X011180Y020680D03*
X008830Y021780D03*
X007930Y021680D03*
X008030Y022580D03*
X011180Y023680D03*
X014430Y023680D03*
X014430Y020680D03*
X017930Y020680D03*
X017930Y023680D03*
X023280Y022580D03*
X024180Y022680D03*
X024080Y021780D03*
X024150Y018780D03*
X022180Y018680D03*
X022180Y015680D03*
X024150Y015780D03*
X018080Y009200D03*
X016580Y007330D03*
X016680Y006430D03*
X015780Y006530D03*
X014180Y006180D03*
X014180Y009180D03*
X018080Y006200D03*
X009680Y015930D03*
X008530Y016010D03*
D14*
X015156Y018180D03*
X015156Y018680D03*
X015156Y019180D03*
X015156Y019680D03*
X017204Y019680D03*
X017204Y019180D03*
X017204Y018680D03*
X017204Y018180D03*
X017204Y011930D03*
X017204Y011430D03*
X017204Y010930D03*
X017204Y010430D03*
X015156Y010430D03*
X015156Y010930D03*
X015156Y011430D03*
X015156Y011930D03*
D15*
X016305Y020555D03*
X016305Y022055D03*
X016305Y023555D03*
X012805Y023555D03*
X012805Y022055D03*
X012805Y020555D03*
X019805Y020555D03*
X019805Y022055D03*
X019805Y023555D03*
D16*
X018930Y019680D03*
X018930Y018680D03*
X018430Y014680D03*
X018430Y013680D03*
X016680Y012930D03*
X015680Y012930D03*
X013930Y016430D03*
X013930Y017430D03*
X013930Y018430D03*
X013930Y019430D03*
D17*
X018430Y016430D03*
D18*
X019430Y016430D03*
X020430Y016430D03*
X020430Y017430D03*
X019430Y017430D03*
X018430Y017430D03*
D19*
X019900Y014680D02*
X020460Y014680D01*
X020460Y013680D02*
X019900Y013680D01*
X019460Y012180D02*
X018900Y012180D01*
X018900Y011180D02*
X019460Y011180D01*
X019460Y010180D02*
X018900Y010180D01*
X012710Y010180D02*
X012150Y010180D01*
X012150Y011180D02*
X012710Y011180D01*
X012710Y012180D02*
X012150Y012180D01*
X011900Y013680D02*
X012460Y013680D01*
X012460Y014680D02*
X011900Y014680D01*
D20*
X011318Y008643D02*
X012860Y008643D01*
X012860Y008801D02*
X011215Y008801D01*
X011311Y008652D02*
X010288Y010245D01*
X009381Y011908D01*
X008595Y013631D01*
X007934Y015406D01*
X007402Y017223D01*
X007001Y019074D01*
X006855Y019978D01*
X006855Y023875D01*
X010680Y023875D01*
X010680Y023473D01*
X010973Y023180D01*
X011227Y023180D01*
X012235Y022172D01*
X012235Y021819D01*
X012569Y021485D01*
X012672Y021485D01*
X013110Y021047D01*
X013110Y020971D01*
X013016Y021065D01*
X012805Y021065D01*
X012805Y020555D01*
X012805Y020555D01*
X012805Y020555D01*
X012295Y020555D01*
X012295Y020766D01*
X012594Y021065D01*
X012805Y021065D01*
X012805Y020555D01*
X012295Y020555D01*
X012295Y020344D01*
X012593Y020046D01*
X011909Y019361D01*
X011860Y019244D01*
X011860Y019116D01*
X011860Y017616D01*
X011909Y017499D01*
X011999Y017409D01*
X012860Y016547D01*
X012860Y015953D01*
X012118Y016694D01*
X012118Y016926D01*
X012082Y017014D01*
X012014Y017082D01*
X011926Y017118D01*
X011434Y017118D01*
X011346Y017082D01*
X011278Y017014D01*
X011242Y016926D01*
X011242Y016434D01*
X011278Y016346D01*
X011346Y016278D01*
X011434Y016242D01*
X011666Y016242D01*
X012610Y015297D01*
X012610Y015115D01*
X012568Y015129D01*
X012496Y015140D01*
X012190Y015140D01*
X012190Y014690D01*
X012170Y014690D01*
X012170Y015140D01*
X011864Y015140D01*
X011792Y015129D01*
X011723Y015106D01*
X011659Y015073D01*
X011600Y015031D01*
X011549Y014980D01*
X011507Y014921D01*
X011474Y014857D01*
X011451Y014788D01*
X011440Y014716D01*
X011440Y014690D01*
X012170Y014690D01*
X012170Y014670D01*
X012190Y014670D01*
X012190Y014220D01*
X012496Y014220D01*
X012568Y014231D01*
X012610Y014245D01*
X012610Y014181D01*
X012563Y014200D01*
X011797Y014200D01*
X011605Y014121D01*
X011459Y013975D01*
X011380Y013783D01*
X011380Y013577D01*
X011399Y013531D01*
X011362Y013568D01*
X011108Y013714D01*
X010826Y013790D01*
X010534Y013790D01*
X010252Y013714D01*
X009998Y013568D01*
X009792Y013362D01*
X009646Y013108D01*
X009570Y012826D01*
X009570Y012534D01*
X009646Y012252D01*
X009792Y011998D01*
X009998Y011792D01*
X010252Y011646D01*
X010534Y011570D01*
X010826Y011570D01*
X011108Y011646D01*
X011362Y011792D01*
X011568Y011998D01*
X011630Y012106D01*
X011630Y012077D01*
X011709Y011885D01*
X011855Y011739D01*
X011998Y011680D01*
X011855Y011621D01*
X011709Y011475D01*
X011630Y011283D01*
X011630Y011077D01*
X011709Y010885D01*
X011855Y010739D01*
X011998Y010680D01*
X011855Y010621D01*
X011709Y010475D01*
X011630Y010283D01*
X011630Y010077D01*
X011709Y009885D01*
X011855Y009739D01*
X012047Y009660D01*
X012813Y009660D01*
X012860Y009679D01*
X012860Y008116D01*
X012909Y007999D01*
X014227Y006680D01*
X013973Y006680D01*
X013680Y006387D01*
X013680Y005973D01*
X013973Y005680D01*
X014387Y005680D01*
X014680Y005973D01*
X014680Y006227D01*
X014861Y006409D01*
X014951Y006499D01*
X015463Y007010D01*
X015553Y007010D01*
X015280Y006737D01*
X015280Y006323D01*
X015360Y006243D01*
X015360Y006116D01*
X015409Y005999D01*
X015499Y005909D01*
X015999Y005409D01*
X016116Y005360D01*
X017244Y005360D01*
X017361Y005409D01*
X017451Y005499D01*
X017763Y005810D01*
X017873Y005700D01*
X018287Y005700D01*
X018580Y005993D01*
X018580Y006407D01*
X018400Y006587D01*
X018400Y006947D01*
X020451Y008999D01*
X020500Y009116D01*
X020500Y013160D01*
X020563Y013160D01*
X020755Y013239D01*
X020901Y013385D01*
X020945Y013493D01*
X020951Y013499D01*
X021813Y014360D01*
X023244Y014360D01*
X023361Y014409D01*
X023451Y014499D01*
X024233Y015280D01*
X024357Y015280D01*
X024487Y015410D01*
X024486Y015405D01*
X023825Y013631D01*
X023039Y011908D01*
X022132Y010245D01*
X021109Y008652D01*
X019975Y007136D01*
X018735Y005704D01*
X018214Y005165D01*
X014206Y005165D01*
X013685Y005704D01*
X012445Y007136D01*
X011311Y008652D01*
X011437Y008484D02*
X012860Y008484D01*
X012860Y008326D02*
X011555Y008326D01*
X011674Y008167D02*
X012860Y008167D01*
X012905Y008009D02*
X011792Y008009D01*
X011911Y007850D02*
X013057Y007850D01*
X013216Y007692D02*
X012030Y007692D01*
X012148Y007533D02*
X013374Y007533D01*
X013533Y007375D02*
X012267Y007375D01*
X012385Y007216D02*
X013691Y007216D01*
X013850Y007058D02*
X012513Y007058D01*
X012651Y006899D02*
X014008Y006899D01*
X014167Y006741D02*
X012788Y006741D01*
X012925Y006582D02*
X013875Y006582D01*
X013716Y006424D02*
X013062Y006424D01*
X013200Y006265D02*
X013680Y006265D01*
X013680Y006107D02*
X013337Y006107D01*
X013474Y005948D02*
X013705Y005948D01*
X013612Y005790D02*
X013863Y005790D01*
X013756Y005631D02*
X015776Y005631D01*
X015618Y005790D02*
X014497Y005790D01*
X014655Y005948D02*
X015459Y005948D01*
X015364Y006107D02*
X014680Y006107D01*
X014718Y006265D02*
X015338Y006265D01*
X015280Y006424D02*
X014876Y006424D01*
X015035Y006582D02*
X015280Y006582D01*
X015283Y006741D02*
X015193Y006741D01*
X015352Y006899D02*
X015442Y006899D01*
X015780Y006530D02*
X015680Y006430D01*
X015680Y006180D01*
X016180Y005680D01*
X017180Y005680D01*
X017700Y006200D01*
X018080Y006200D01*
X018080Y007080D01*
X020180Y009180D01*
X020180Y013180D01*
X020118Y013243D01*
X020180Y013305D01*
X020180Y013680D01*
X020680Y013680D01*
X021680Y014680D01*
X023180Y014680D01*
X024150Y015650D01*
X024150Y015780D01*
X022965Y016965D01*
X022965Y018965D01*
X022895Y018965D01*
X022180Y019680D01*
X022180Y021180D01*
X022680Y021680D01*
X023980Y021680D01*
X024080Y021780D01*
X024580Y021798D02*
X025565Y021798D01*
X025565Y021640D02*
X024580Y021640D01*
X024580Y021573D02*
X024580Y021987D01*
X024387Y022180D01*
X024387Y022180D01*
X024680Y022473D01*
X024680Y022887D01*
X024387Y023180D01*
X023973Y023180D01*
X023680Y022887D01*
X023487Y023080D01*
X023073Y023080D01*
X022993Y023000D01*
X022116Y023000D01*
X021999Y022951D01*
X021909Y022861D01*
X020534Y021486D01*
X020485Y021369D01*
X020485Y020375D01*
X020315Y020375D01*
X020315Y020555D01*
X020315Y020766D01*
X020016Y021065D01*
X019805Y021065D01*
X019805Y020555D01*
X019805Y020555D01*
X020315Y020555D01*
X019805Y020555D01*
X019805Y020555D01*
X019805Y020555D01*
X019295Y020555D01*
X019295Y020766D01*
X019594Y021065D01*
X019805Y021065D01*
X019805Y020555D01*
X019295Y020555D01*
X019295Y020500D01*
X018491Y020500D01*
X018430Y020475D01*
X018430Y020887D01*
X018137Y021180D01*
X017723Y021180D01*
X017430Y020887D01*
X017430Y020473D01*
X017723Y020180D01*
X018102Y020180D01*
X017874Y019951D01*
X017799Y019877D01*
X017781Y019909D01*
X017747Y019942D01*
X017706Y019966D01*
X017660Y019978D01*
X017204Y019978D01*
X017204Y019680D01*
X017204Y019680D01*
X017204Y019978D01*
X016747Y019978D01*
X016701Y019966D01*
X016660Y019942D01*
X016627Y019909D01*
X016603Y019868D01*
X016591Y019822D01*
X016591Y019680D01*
X016591Y019538D01*
X016603Y019492D01*
X016611Y019478D01*
X016601Y019468D01*
X016582Y019514D01*
X016514Y019582D01*
X016500Y019587D01*
X016500Y019744D01*
X016451Y019861D01*
X016361Y019951D01*
X016244Y020000D01*
X015727Y020000D01*
X015725Y020002D01*
X015637Y020038D01*
X015116Y020038D01*
X015795Y020717D01*
X015795Y020555D01*
X016305Y020555D01*
X016305Y020555D01*
X016305Y021065D01*
X016516Y021065D01*
X016815Y020766D01*
X016815Y020555D01*
X016305Y020555D01*
X016305Y020555D01*
X016305Y021065D01*
X016143Y021065D01*
X016486Y021409D01*
X016576Y021499D01*
X016591Y021535D01*
X016875Y021819D01*
X016875Y022291D01*
X016541Y022625D01*
X016188Y022625D01*
X014951Y023861D01*
X014938Y023875D01*
X015819Y023875D01*
X015735Y023791D01*
X015735Y023319D01*
X016069Y022985D01*
X016541Y022985D01*
X016875Y023319D01*
X016875Y023791D01*
X016791Y023875D01*
X017430Y023875D01*
X017430Y023473D01*
X017723Y023180D01*
X018137Y023180D01*
X018182Y023225D01*
X019235Y022172D01*
X019235Y021819D01*
X019569Y021485D01*
X020041Y021485D01*
X020375Y021819D01*
X020375Y022291D01*
X020041Y022625D01*
X019688Y022625D01*
X018438Y023875D01*
X019319Y023875D01*
X019235Y023791D01*
X019235Y023319D01*
X019569Y022985D01*
X020041Y022985D01*
X020375Y023319D01*
X020375Y023791D01*
X020291Y023875D01*
X025565Y023875D01*
X025565Y019978D01*
X025419Y019074D01*
X025018Y017223D01*
X024650Y015966D01*
X024650Y015987D01*
X024357Y016280D01*
X024103Y016280D01*
X023403Y016979D01*
X023403Y017211D01*
X023367Y017299D01*
X023299Y017367D01*
X023285Y017372D01*
X023285Y019029D01*
X023236Y019146D01*
X023146Y019236D01*
X023029Y019285D01*
X023028Y019285D01*
X022500Y019813D01*
X022500Y021047D01*
X022813Y021360D01*
X023793Y021360D01*
X023873Y021280D01*
X024287Y021280D01*
X024580Y021573D01*
X024488Y021481D02*
X025565Y021481D01*
X025565Y021323D02*
X024330Y021323D01*
X023830Y021323D02*
X022775Y021323D01*
X022617Y021164D02*
X025565Y021164D01*
X025565Y021006D02*
X022500Y021006D01*
X022500Y020847D02*
X025565Y020847D01*
X025565Y020689D02*
X023789Y020689D01*
X023701Y020725D02*
X023926Y020632D01*
X024097Y020461D01*
X024117Y020413D01*
X024160Y020473D01*
X024222Y020535D01*
X024292Y020585D01*
X024369Y020625D01*
X024451Y020651D01*
X024537Y020665D01*
X024580Y020665D01*
X024580Y020115D01*
X024580Y020115D01*
X025130Y020115D01*
X025130Y020158D01*
X025116Y020244D01*
X025090Y020326D01*
X025050Y020403D01*
X025000Y020473D01*
X024938Y020535D01*
X024868Y020585D01*
X024791Y020625D01*
X024709Y020651D01*
X024623Y020665D01*
X024580Y020665D01*
X024580Y020115D01*
X024580Y020115D01*
X025130Y020115D01*
X025130Y020072D01*
X025116Y019986D01*
X025090Y019904D01*
X025050Y019827D01*
X025000Y019757D01*
X024938Y019695D01*
X024868Y019645D01*
X024791Y019605D01*
X024709Y019579D01*
X024623Y019565D01*
X024580Y019565D01*
X024580Y020115D01*
X024580Y020115D01*
X024580Y019565D01*
X024537Y019565D01*
X024451Y019579D01*
X024369Y019605D01*
X024292Y019645D01*
X024222Y019695D01*
X024160Y019757D01*
X024117Y019817D01*
X024097Y019769D01*
X024062Y019734D01*
X024230Y019280D01*
X024357Y019280D01*
X024650Y018987D01*
X024650Y018573D01*
X024357Y018280D01*
X023943Y018280D01*
X023650Y018573D01*
X023650Y018987D01*
X023655Y018992D01*
X023465Y019505D01*
X023459Y019505D01*
X023234Y019598D01*
X023063Y019769D01*
X022970Y019994D01*
X022970Y020236D01*
X023063Y020461D01*
X023234Y020632D01*
X023459Y020725D01*
X023701Y020725D01*
X023371Y020689D02*
X022500Y020689D01*
X022500Y020530D02*
X023132Y020530D01*
X023026Y020372D02*
X022500Y020372D01*
X022500Y020213D02*
X022970Y020213D01*
X022970Y020055D02*
X022500Y020055D01*
X022500Y019896D02*
X023010Y019896D01*
X023095Y019738D02*
X022575Y019738D01*
X022734Y019579D02*
X023280Y019579D01*
X023496Y019421D02*
X022892Y019421D01*
X023084Y019262D02*
X023555Y019262D01*
X023613Y019104D02*
X023254Y019104D01*
X023285Y018945D02*
X023650Y018945D01*
X023650Y018787D02*
X023285Y018787D01*
X023285Y018628D02*
X023650Y018628D01*
X023753Y018470D02*
X023285Y018470D01*
X023285Y018311D02*
X023912Y018311D01*
X024388Y018311D02*
X025254Y018311D01*
X025220Y018153D02*
X023285Y018153D01*
X023285Y017994D02*
X025185Y017994D01*
X025151Y017836D02*
X023285Y017836D01*
X023285Y017677D02*
X025117Y017677D01*
X025082Y017519D02*
X023285Y017519D01*
X023306Y017360D02*
X025048Y017360D01*
X025012Y017202D02*
X023403Y017202D01*
X023403Y017043D02*
X024965Y017043D01*
X024919Y016885D02*
X023498Y016885D01*
X023657Y016726D02*
X024873Y016726D01*
X024826Y016568D02*
X023815Y016568D01*
X023974Y016409D02*
X024780Y016409D01*
X024733Y016251D02*
X024387Y016251D01*
X024545Y016092D02*
X024687Y016092D01*
X024446Y015300D02*
X024377Y015300D01*
X024387Y015141D02*
X024094Y015141D01*
X023935Y014983D02*
X024328Y014983D01*
X024269Y014824D02*
X023777Y014824D01*
X023618Y014666D02*
X024210Y014666D01*
X024151Y014507D02*
X023460Y014507D01*
X023047Y015000D02*
X021616Y015000D01*
X021499Y014951D01*
X020694Y014146D01*
X020563Y014200D01*
X019797Y014200D01*
X019605Y014121D01*
X019459Y013975D01*
X019380Y013783D01*
X019380Y013577D01*
X019459Y013385D01*
X019605Y013239D01*
X019645Y013223D01*
X019547Y013125D01*
X018313Y013125D01*
X018313Y013125D01*
X018660Y013125D01*
X018985Y013450D01*
X018985Y013910D01*
X018672Y014222D01*
X018925Y014475D01*
X018925Y014680D01*
X018925Y014885D01*
X018635Y015175D01*
X018430Y015175D01*
X018430Y014680D01*
X018430Y014680D01*
X018925Y014680D01*
X018430Y014680D01*
X018430Y014680D01*
X018430Y015175D01*
X018225Y015175D01*
X017935Y014885D01*
X017935Y014732D01*
X017830Y014851D01*
X017826Y014861D01*
X017789Y014899D01*
X017754Y014939D01*
X017744Y014944D01*
X017736Y014951D01*
X017687Y014972D01*
X017640Y014995D01*
X017629Y014996D01*
X017619Y015000D01*
X017566Y015000D01*
X017513Y015004D01*
X017502Y015000D01*
X017453Y015000D01*
X017813Y015360D01*
X020744Y015360D01*
X020861Y015409D01*
X020951Y015499D01*
X022361Y016909D01*
X022451Y016999D01*
X022500Y017116D01*
X022500Y018293D01*
X022645Y018438D01*
X022645Y017372D01*
X022631Y017367D01*
X022563Y017299D01*
X022527Y017211D01*
X022527Y016719D01*
X022563Y016631D01*
X022631Y016563D01*
X022719Y016527D01*
X022951Y016527D01*
X023650Y015827D01*
X023650Y015603D01*
X023047Y015000D01*
X023188Y015141D02*
X018669Y015141D01*
X018828Y014983D02*
X019552Y014983D01*
X019549Y014980D02*
X019507Y014921D01*
X019474Y014857D01*
X019451Y014788D01*
X019440Y014716D01*
X019440Y014690D01*
X020170Y014690D01*
X020170Y015140D01*
X019864Y015140D01*
X019792Y015129D01*
X019723Y015106D01*
X019659Y015073D01*
X019600Y015031D01*
X019549Y014980D01*
X019463Y014824D02*
X018925Y014824D01*
X018925Y014666D02*
X019440Y014666D01*
X019440Y014670D02*
X019440Y014644D01*
X019451Y014572D01*
X019474Y014503D01*
X019507Y014439D01*
X019549Y014380D01*
X019600Y014329D01*
X019659Y014287D01*
X019723Y014254D01*
X019792Y014231D01*
X019864Y014220D01*
X020170Y014220D01*
X020170Y014670D01*
X020190Y014670D01*
X020190Y014690D01*
X020170Y014690D01*
X020170Y014670D01*
X019440Y014670D01*
X019473Y014507D02*
X018925Y014507D01*
X018799Y014349D02*
X019581Y014349D01*
X019772Y014190D02*
X018705Y014190D01*
X018863Y014032D02*
X019516Y014032D01*
X019417Y013873D02*
X018985Y013873D01*
X018985Y013715D02*
X019380Y013715D01*
X019389Y013556D02*
X018985Y013556D01*
X018932Y013398D02*
X019454Y013398D01*
X019606Y013239D02*
X018774Y013239D01*
X018430Y012805D02*
X018180Y012805D01*
X017305Y013680D01*
X016180Y013680D01*
X015680Y013180D01*
X015680Y012930D01*
X015125Y012922D02*
X014875Y012922D01*
X015033Y013081D02*
X015125Y013081D01*
X015125Y013160D02*
X015125Y012700D01*
X015450Y012375D01*
X015910Y012375D01*
X016222Y012688D01*
X016475Y012435D01*
X016680Y012435D01*
X016885Y012435D01*
X017175Y012725D01*
X017175Y012930D01*
X017175Y013135D01*
X016950Y013360D01*
X017172Y013360D01*
X017876Y012657D01*
X017860Y012619D01*
X017860Y012313D01*
X017797Y012250D01*
X017774Y012250D01*
X017773Y012252D01*
X017684Y012288D01*
X016723Y012288D01*
X016635Y012252D01*
X016567Y012184D01*
X016531Y012096D01*
X016531Y011764D01*
X016565Y011680D01*
X016531Y011596D01*
X016531Y011264D01*
X016565Y011180D01*
X016531Y011096D01*
X016531Y010764D01*
X016565Y010680D01*
X016531Y010596D01*
X016531Y010264D01*
X016567Y010176D01*
X016635Y010108D01*
X016723Y010072D01*
X017684Y010072D01*
X017773Y010108D01*
X017774Y010110D01*
X018380Y010110D01*
X018380Y010077D01*
X018459Y009885D01*
X018605Y009739D01*
X018797Y009660D01*
X019563Y009660D01*
X019755Y009739D01*
X019860Y009845D01*
X019860Y009313D01*
X017809Y007261D01*
X017760Y007144D01*
X017760Y006587D01*
X017693Y006520D01*
X017636Y006520D01*
X017519Y006471D01*
X017047Y006000D01*
X016957Y006000D01*
X017180Y006223D01*
X017180Y006637D01*
X016887Y006930D01*
X017080Y007123D01*
X017080Y007537D01*
X016787Y007830D01*
X016400Y007830D01*
X016458Y007860D01*
X016528Y007910D01*
X016590Y007972D01*
X016640Y008042D01*
X016680Y008119D01*
X016706Y008201D01*
X016720Y008287D01*
X016720Y008330D01*
X016720Y008373D01*
X016706Y008459D01*
X016680Y008541D01*
X016640Y008618D01*
X016590Y008688D01*
X016528Y008750D01*
X016468Y008793D01*
X016516Y008813D01*
X016583Y008880D01*
X017693Y008880D01*
X017873Y008700D01*
X018287Y008700D01*
X018580Y008993D01*
X018580Y009407D01*
X018287Y009700D01*
X017873Y009700D01*
X017693Y009520D01*
X016752Y009520D01*
X016687Y009676D01*
X016516Y009847D01*
X016291Y009940D01*
X016049Y009940D01*
X015824Y009847D01*
X015653Y009676D01*
X015618Y009592D01*
X015618Y009926D01*
X015582Y010014D01*
X015514Y010082D01*
X015426Y010118D01*
X014934Y010118D01*
X014846Y010082D01*
X014788Y010024D01*
X014674Y010139D01*
X014700Y010132D01*
X015156Y010132D01*
X015156Y010430D01*
X014543Y010430D01*
X014543Y010558D01*
X014514Y010528D01*
X014426Y010492D01*
X014263Y010492D01*
X014361Y010451D01*
X014550Y010262D01*
X014543Y010288D01*
X014543Y010430D01*
X015156Y010430D01*
X015156Y010430D01*
X015156Y010430D01*
X015156Y010132D01*
X015613Y010132D01*
X015659Y010144D01*
X015700Y010168D01*
X015733Y010201D01*
X015757Y010242D01*
X015769Y010288D01*
X015769Y010430D01*
X015769Y010572D01*
X015757Y010618D01*
X015749Y010632D01*
X015793Y010676D01*
X015829Y010764D01*
X015829Y011096D01*
X015795Y011180D01*
X015829Y011264D01*
X015829Y011596D01*
X015795Y011680D01*
X015829Y011764D01*
X015829Y012096D01*
X015793Y012184D01*
X015725Y012252D01*
X015637Y012288D01*
X014676Y012288D01*
X014587Y012252D01*
X014586Y012250D01*
X014563Y012250D01*
X014500Y012313D01*
X014500Y012547D01*
X016313Y014360D01*
X017410Y014360D01*
X017875Y013828D01*
X017875Y013563D01*
X017576Y013861D01*
X017486Y013951D01*
X017369Y014000D01*
X016116Y014000D01*
X015999Y013951D01*
X015532Y013485D01*
X015450Y013485D01*
X015125Y013160D01*
X015192Y013239D02*
X015204Y013239D01*
X015350Y013398D02*
X015363Y013398D01*
X015509Y013556D02*
X015603Y013556D01*
X015667Y013715D02*
X015762Y013715D01*
X015826Y013873D02*
X015920Y013873D01*
X015984Y014032D02*
X017697Y014032D01*
X017565Y013873D02*
X017836Y013873D01*
X017875Y013715D02*
X017723Y013715D01*
X017559Y014190D02*
X016143Y014190D01*
X016301Y014349D02*
X017420Y014349D01*
X017555Y014680D02*
X018430Y013680D01*
X018430Y012805D02*
X018180Y012555D01*
X018180Y012180D01*
X017930Y011930D01*
X017204Y011930D01*
X017685Y012288D02*
X017835Y012288D01*
X017860Y012447D02*
X016897Y012447D01*
X016680Y012447D02*
X016680Y012447D01*
X016680Y012435D02*
X016680Y012930D01*
X017175Y012930D01*
X016680Y012930D01*
X016680Y012930D01*
X016680Y012930D01*
X016680Y012435D01*
X016723Y012288D02*
X015637Y012288D01*
X015816Y012130D02*
X016544Y012130D01*
X016531Y011971D02*
X015829Y011971D01*
X015829Y011813D02*
X016531Y011813D01*
X016555Y011654D02*
X015805Y011654D01*
X015829Y011496D02*
X016531Y011496D01*
X016531Y011337D02*
X015829Y011337D01*
X015795Y011179D02*
X016565Y011179D01*
X016531Y011020D02*
X015829Y011020D01*
X015829Y010862D02*
X016531Y010862D01*
X016556Y010703D02*
X015804Y010703D01*
X015769Y010545D02*
X016531Y010545D01*
X016531Y010386D02*
X015769Y010386D01*
X015769Y010430D02*
X015156Y010430D01*
X015769Y010430D01*
X015749Y010228D02*
X016546Y010228D01*
X016363Y009911D02*
X018449Y009911D01*
X018383Y010069D02*
X015527Y010069D01*
X015618Y009911D02*
X015977Y009911D01*
X015729Y009752D02*
X015618Y009752D01*
X015618Y009594D02*
X015619Y009594D01*
X015560Y009324D02*
X015560Y009209D01*
X015653Y008984D01*
X015824Y008813D01*
X015872Y008793D01*
X015812Y008750D01*
X015750Y008688D01*
X015700Y008618D01*
X015660Y008541D01*
X015634Y008459D01*
X015620Y008373D01*
X015620Y008330D01*
X016170Y008330D01*
X016720Y008330D01*
X016170Y008330D01*
X016170Y008330D01*
X016170Y007780D01*
X016213Y007780D01*
X016299Y007794D01*
X016355Y007812D01*
X016193Y007650D01*
X015266Y007650D01*
X015149Y007601D01*
X014680Y007133D01*
X013500Y008313D01*
X013500Y009860D01*
X014047Y009860D01*
X014287Y009620D01*
X014180Y009620D01*
X014180Y009180D01*
X014620Y009180D01*
X014620Y009360D01*
X014773Y009360D01*
X014778Y009346D01*
X014846Y009278D01*
X014934Y009242D01*
X015426Y009242D01*
X015514Y009278D01*
X015560Y009324D01*
X015560Y009277D02*
X015509Y009277D01*
X015598Y009118D02*
X014620Y009118D01*
X014620Y009180D02*
X014180Y009180D01*
X014180Y009180D01*
X014180Y009180D01*
X014180Y008740D01*
X014362Y008740D01*
X014620Y008998D01*
X014620Y009180D01*
X014620Y009277D02*
X014851Y009277D01*
X014582Y008960D02*
X015678Y008960D01*
X015853Y008801D02*
X014423Y008801D01*
X014180Y008801D02*
X014180Y008801D01*
X014180Y008740D02*
X014180Y009180D01*
X014180Y009180D01*
X014180Y009180D01*
X013740Y009180D01*
X013740Y009362D01*
X013998Y009620D01*
X014180Y009620D01*
X014180Y009180D01*
X013740Y009180D01*
X013740Y008998D01*
X013998Y008740D01*
X014180Y008740D01*
X014180Y008960D02*
X014180Y008960D01*
X014180Y009118D02*
X014180Y009118D01*
X014180Y009277D02*
X014180Y009277D01*
X014180Y009435D02*
X014180Y009435D01*
X014180Y009594D02*
X014180Y009594D01*
X014155Y009752D02*
X013500Y009752D01*
X013500Y009594D02*
X013971Y009594D01*
X013813Y009435D02*
X013500Y009435D01*
X013500Y009277D02*
X013740Y009277D01*
X013740Y009118D02*
X013500Y009118D01*
X013500Y008960D02*
X013778Y008960D01*
X013937Y008801D02*
X013500Y008801D01*
X013500Y008643D02*
X015717Y008643D01*
X015642Y008484D02*
X013500Y008484D01*
X013500Y008326D02*
X015620Y008326D01*
X015620Y008330D02*
X015620Y008287D01*
X015634Y008201D01*
X015660Y008119D01*
X015700Y008042D01*
X015750Y007972D01*
X015812Y007910D01*
X015882Y007860D01*
X015959Y007820D01*
X016041Y007794D01*
X016127Y007780D01*
X016170Y007780D01*
X016170Y008330D01*
X016170Y008330D01*
X016170Y008330D01*
X015620Y008330D01*
X015645Y008167D02*
X013646Y008167D01*
X013804Y008009D02*
X015724Y008009D01*
X015901Y007850D02*
X013963Y007850D01*
X014121Y007692D02*
X016234Y007692D01*
X016170Y007850D02*
X016170Y007850D01*
X016170Y008009D02*
X016170Y008009D01*
X016170Y008167D02*
X016170Y008167D01*
X016170Y008326D02*
X016170Y008326D01*
X016439Y007850D02*
X018397Y007850D01*
X018239Y007692D02*
X016926Y007692D01*
X017080Y007533D02*
X018080Y007533D01*
X017922Y007375D02*
X017080Y007375D01*
X017080Y007216D02*
X017790Y007216D01*
X017760Y007058D02*
X017015Y007058D01*
X016887Y006930D02*
X016887Y006930D01*
X016918Y006899D02*
X017760Y006899D01*
X017760Y006741D02*
X017077Y006741D01*
X017180Y006582D02*
X017755Y006582D01*
X017471Y006424D02*
X017180Y006424D01*
X017180Y006265D02*
X017312Y006265D01*
X017154Y006107D02*
X017064Y006107D01*
X017584Y005631D02*
X018664Y005631D01*
X018808Y005790D02*
X018377Y005790D01*
X018535Y005948D02*
X018946Y005948D01*
X019083Y006107D02*
X018580Y006107D01*
X018580Y006265D02*
X019220Y006265D01*
X019358Y006424D02*
X018564Y006424D01*
X018405Y006582D02*
X019495Y006582D01*
X019632Y006741D02*
X018400Y006741D01*
X018400Y006899D02*
X019769Y006899D01*
X019907Y007058D02*
X018510Y007058D01*
X018669Y007216D02*
X020035Y007216D01*
X020153Y007375D02*
X018827Y007375D01*
X018986Y007533D02*
X020272Y007533D01*
X020390Y007692D02*
X019144Y007692D01*
X019303Y007850D02*
X020509Y007850D01*
X020628Y008009D02*
X019461Y008009D01*
X019620Y008167D02*
X020746Y008167D01*
X020865Y008326D02*
X019778Y008326D01*
X019937Y008484D02*
X020983Y008484D01*
X021102Y008643D02*
X020095Y008643D01*
X020254Y008801D02*
X021205Y008801D01*
X021307Y008960D02*
X020412Y008960D01*
X020500Y009118D02*
X021408Y009118D01*
X021510Y009277D02*
X020500Y009277D01*
X020500Y009435D02*
X021612Y009435D01*
X021714Y009594D02*
X020500Y009594D01*
X020500Y009752D02*
X021816Y009752D01*
X021917Y009911D02*
X020500Y009911D01*
X020500Y010069D02*
X022019Y010069D01*
X022121Y010228D02*
X020500Y010228D01*
X020500Y010386D02*
X022209Y010386D01*
X022296Y010545D02*
X020500Y010545D01*
X020500Y010703D02*
X022382Y010703D01*
X022469Y010862D02*
X020500Y010862D01*
X020500Y011020D02*
X022555Y011020D01*
X022642Y011179D02*
X020500Y011179D01*
X020500Y011337D02*
X022728Y011337D01*
X022814Y011496D02*
X020500Y011496D01*
X020500Y011654D02*
X021362Y011654D01*
X021377Y011646D02*
X021659Y011570D01*
X021951Y011570D01*
X022233Y011646D01*
X022487Y011792D01*
X022693Y011998D01*
X022839Y012252D01*
X022915Y012534D01*
X022915Y012826D01*
X022839Y013108D01*
X022693Y013362D01*
X022487Y013568D01*
X022233Y013714D01*
X021951Y013790D01*
X021659Y013790D01*
X021377Y013714D01*
X021123Y013568D01*
X020917Y013362D01*
X020771Y013108D01*
X020695Y012826D01*
X020695Y012534D01*
X020771Y012252D01*
X020917Y011998D01*
X021123Y011792D01*
X021377Y011646D01*
X021103Y011813D02*
X020500Y011813D01*
X020500Y011971D02*
X020944Y011971D01*
X020841Y012130D02*
X020500Y012130D01*
X020500Y012288D02*
X020761Y012288D01*
X020718Y012447D02*
X020500Y012447D01*
X020500Y012605D02*
X020695Y012605D01*
X020695Y012764D02*
X020500Y012764D01*
X020500Y012922D02*
X020721Y012922D01*
X020763Y013081D02*
X020500Y013081D01*
X020754Y013239D02*
X020846Y013239D01*
X020906Y013398D02*
X020953Y013398D01*
X021009Y013556D02*
X021111Y013556D01*
X021167Y013715D02*
X021377Y013715D01*
X021326Y013873D02*
X023915Y013873D01*
X023856Y013715D02*
X022233Y013715D01*
X022499Y013556D02*
X023791Y013556D01*
X023719Y013398D02*
X022657Y013398D01*
X022764Y013239D02*
X023647Y013239D01*
X023574Y013081D02*
X022847Y013081D01*
X022889Y012922D02*
X023502Y012922D01*
X023430Y012764D02*
X022915Y012764D01*
X022915Y012605D02*
X023357Y012605D01*
X023285Y012447D02*
X022892Y012447D01*
X022849Y012288D02*
X023213Y012288D01*
X023140Y012130D02*
X022769Y012130D01*
X022666Y011971D02*
X023068Y011971D01*
X022987Y011813D02*
X022507Y011813D01*
X022248Y011654D02*
X022901Y011654D01*
X023974Y014032D02*
X021484Y014032D01*
X021643Y014190D02*
X024033Y014190D01*
X024092Y014349D02*
X021801Y014349D01*
X021371Y014824D02*
X020897Y014824D01*
X020886Y014857D02*
X020853Y014921D01*
X020811Y014980D01*
X020760Y015031D01*
X020701Y015073D01*
X020637Y015106D01*
X020568Y015129D01*
X020496Y015140D01*
X020190Y015140D01*
X020190Y014690D01*
X020920Y014690D01*
X020920Y014716D01*
X020909Y014788D01*
X020886Y014857D01*
X020808Y014983D02*
X021574Y014983D01*
X021213Y014666D02*
X020920Y014666D01*
X020920Y014670D02*
X020190Y014670D01*
X020190Y014220D01*
X020496Y014220D01*
X020568Y014231D01*
X020637Y014254D01*
X020701Y014287D01*
X020760Y014329D01*
X020811Y014380D01*
X020853Y014439D01*
X020886Y014503D01*
X020909Y014572D01*
X020920Y014644D01*
X020920Y014670D01*
X020887Y014507D02*
X021054Y014507D01*
X020896Y014349D02*
X020779Y014349D01*
X020737Y014190D02*
X020588Y014190D01*
X020190Y014349D02*
X020170Y014349D01*
X020170Y014507D02*
X020190Y014507D01*
X020190Y014666D02*
X020170Y014666D01*
X020170Y014824D02*
X020190Y014824D01*
X020190Y014983D02*
X020170Y014983D01*
X020911Y015458D02*
X021780Y015458D01*
X021740Y015498D02*
X021998Y015240D01*
X022180Y015240D01*
X022362Y015240D01*
X022620Y015498D01*
X022620Y015680D01*
X022620Y015862D01*
X022362Y016120D01*
X022180Y016120D01*
X022180Y015680D01*
X022180Y015680D01*
X022620Y015680D01*
X022180Y015680D01*
X022180Y015680D01*
X022180Y015680D01*
X021740Y015680D01*
X021740Y015862D01*
X021998Y016120D01*
X022180Y016120D01*
X022180Y015680D01*
X022180Y015240D01*
X022180Y015680D01*
X022180Y015680D01*
X021740Y015680D01*
X021740Y015498D01*
X021740Y015617D02*
X021069Y015617D01*
X021228Y015775D02*
X021740Y015775D01*
X021811Y015934D02*
X021386Y015934D01*
X021545Y016092D02*
X021970Y016092D01*
X022180Y016092D02*
X022180Y016092D01*
X022180Y015934D02*
X022180Y015934D01*
X022180Y015775D02*
X022180Y015775D01*
X022180Y015617D02*
X022180Y015617D01*
X022180Y015458D02*
X022180Y015458D01*
X022180Y015300D02*
X022180Y015300D01*
X022422Y015300D02*
X023347Y015300D01*
X023505Y015458D02*
X022580Y015458D01*
X022620Y015617D02*
X023650Y015617D01*
X023650Y015775D02*
X022620Y015775D01*
X022549Y015934D02*
X023544Y015934D01*
X023385Y016092D02*
X022390Y016092D01*
X022627Y016568D02*
X022020Y016568D01*
X022179Y016726D02*
X022527Y016726D01*
X022527Y016885D02*
X022337Y016885D01*
X022470Y017043D02*
X022527Y017043D01*
X022527Y017202D02*
X022500Y017202D01*
X022500Y017360D02*
X022624Y017360D01*
X022645Y017519D02*
X022500Y017519D01*
X022500Y017677D02*
X022645Y017677D01*
X022645Y017836D02*
X022500Y017836D01*
X022500Y017994D02*
X022645Y017994D01*
X022645Y018153D02*
X022500Y018153D01*
X022518Y018311D02*
X022645Y018311D01*
X022180Y018680D02*
X022180Y017180D01*
X020680Y015680D01*
X017680Y015680D01*
X017180Y015180D01*
X015680Y015180D01*
X013680Y013180D01*
X013666Y013618D02*
X013500Y013618D01*
X013500Y016160D01*
X013725Y015935D01*
X013930Y015935D01*
X014135Y015935D01*
X014425Y016225D01*
X014425Y016430D01*
X014425Y016635D01*
X014172Y016888D01*
X014395Y017110D01*
X014470Y017110D01*
X014588Y017159D01*
X014678Y017249D01*
X015251Y017822D01*
X015637Y017822D01*
X015725Y017858D01*
X015793Y017926D01*
X015829Y018014D01*
X015829Y018170D01*
X015846Y018153D01*
X015934Y018117D01*
X016426Y018117D01*
X016514Y018153D01*
X016531Y018170D01*
X016531Y018014D01*
X016567Y017926D01*
X016635Y017858D01*
X016723Y017822D01*
X017684Y017822D01*
X017773Y017858D01*
X017774Y017860D01*
X018096Y017860D01*
X017890Y017654D01*
X017890Y017206D01*
X018206Y016890D01*
X018292Y016890D01*
X018246Y016875D01*
X018178Y016841D01*
X018117Y016796D01*
X018064Y016743D01*
X018019Y016682D01*
X017985Y016614D01*
X017962Y016542D01*
X017950Y016468D01*
X017950Y016450D01*
X018410Y016450D01*
X018410Y016410D01*
X017950Y016410D01*
X017950Y016392D01*
X017962Y016318D01*
X017985Y016246D01*
X018019Y016178D01*
X018064Y016117D01*
X018117Y016064D01*
X018178Y016019D01*
X018217Y016000D01*
X017616Y016000D01*
X017499Y015951D01*
X017047Y015500D01*
X015616Y015500D01*
X015499Y015451D01*
X013666Y013618D01*
X013762Y013715D02*
X013500Y013715D01*
X013500Y013873D02*
X013920Y013873D01*
X014079Y014032D02*
X013500Y014032D01*
X013500Y014190D02*
X014237Y014190D01*
X014396Y014349D02*
X013500Y014349D01*
X013500Y014507D02*
X014554Y014507D01*
X014713Y014666D02*
X013500Y014666D01*
X013500Y014824D02*
X014871Y014824D01*
X015030Y014983D02*
X013500Y014983D01*
X013500Y015141D02*
X015188Y015141D01*
X015347Y015300D02*
X013500Y015300D01*
X013500Y015458D02*
X015515Y015458D01*
X015744Y015775D02*
X013500Y015775D01*
X013500Y015617D02*
X017164Y015617D01*
X017322Y015775D02*
X016616Y015775D01*
X016608Y015771D02*
X016862Y015917D01*
X017068Y016123D01*
X017214Y016377D01*
X017290Y016659D01*
X017290Y016951D01*
X017214Y017233D01*
X017068Y017487D01*
X016862Y017693D01*
X016608Y017839D01*
X016326Y017915D01*
X016034Y017915D01*
X015752Y017839D01*
X015498Y017693D01*
X015292Y017487D01*
X015146Y017233D01*
X015070Y016951D01*
X015070Y016659D01*
X015146Y016377D01*
X015292Y016123D01*
X015498Y015917D01*
X015752Y015771D01*
X016034Y015695D01*
X016326Y015695D01*
X016608Y015771D01*
X016878Y015934D02*
X017481Y015934D01*
X017141Y016251D02*
X017984Y016251D01*
X017950Y016409D02*
X017223Y016409D01*
X017265Y016568D02*
X017970Y016568D01*
X018052Y016726D02*
X017290Y016726D01*
X017290Y016885D02*
X018276Y016885D01*
X018053Y017043D02*
X017265Y017043D01*
X017223Y017202D02*
X017895Y017202D01*
X017890Y017360D02*
X017141Y017360D01*
X017036Y017519D02*
X017890Y017519D01*
X017913Y017677D02*
X016878Y017677D01*
X016690Y017836D02*
X016615Y017836D01*
X016539Y017994D02*
X015821Y017994D01*
X015829Y018153D02*
X015848Y018153D01*
X015745Y017836D02*
X015670Y017836D01*
X015482Y017677D02*
X015106Y017677D01*
X014947Y017519D02*
X015324Y017519D01*
X015219Y017360D02*
X014789Y017360D01*
X014630Y017202D02*
X015137Y017202D01*
X015095Y017043D02*
X014328Y017043D01*
X014176Y016885D02*
X015070Y016885D01*
X015070Y016726D02*
X014334Y016726D01*
X014425Y016568D02*
X015095Y016568D01*
X015137Y016409D02*
X014425Y016409D01*
X014425Y016430D02*
X013930Y016430D01*
X014425Y016430D01*
X014425Y016251D02*
X015219Y016251D01*
X015323Y016092D02*
X014292Y016092D01*
X013930Y016092D02*
X013930Y016092D01*
X013930Y015935D02*
X013930Y016430D01*
X013930Y016430D01*
X013930Y016430D01*
X013930Y015935D01*
X013930Y016251D02*
X013930Y016251D01*
X013930Y016409D02*
X013930Y016409D01*
X013568Y016092D02*
X013500Y016092D01*
X013500Y015934D02*
X015482Y015934D01*
X017037Y016092D02*
X018089Y016092D01*
X017752Y015300D02*
X021938Y015300D01*
X021703Y016251D02*
X023227Y016251D01*
X023068Y016409D02*
X021862Y016409D01*
X021432Y016885D02*
X020739Y016885D01*
X020694Y016930D02*
X020970Y017206D01*
X020970Y017654D01*
X020654Y017970D01*
X020206Y017970D01*
X019930Y017694D01*
X019654Y017970D01*
X019206Y017970D01*
X018930Y017694D01*
X018663Y017961D01*
X018828Y018125D01*
X019160Y018125D01*
X019485Y018450D01*
X019485Y018910D01*
X019172Y019222D01*
X019425Y019475D01*
X019425Y019680D01*
X019425Y019762D01*
X019491Y019735D01*
X020672Y019735D01*
X021680Y018727D01*
X021680Y018473D01*
X021860Y018293D01*
X021860Y017313D01*
X020970Y016423D01*
X020970Y016654D01*
X020694Y016930D01*
X020807Y017043D02*
X021590Y017043D01*
X021749Y017202D02*
X020965Y017202D01*
X020970Y017360D02*
X021860Y017360D01*
X021860Y017519D02*
X020970Y017519D01*
X020947Y017677D02*
X021860Y017677D01*
X021860Y017836D02*
X020788Y017836D01*
X020072Y017836D02*
X019788Y017836D01*
X019346Y018311D02*
X021842Y018311D01*
X021860Y018153D02*
X019187Y018153D01*
X019072Y017836D02*
X018788Y017836D01*
X018697Y017994D02*
X021860Y017994D01*
X021683Y018470D02*
X019485Y018470D01*
X019485Y018628D02*
X021680Y018628D01*
X021621Y018787D02*
X019485Y018787D01*
X019450Y018945D02*
X021462Y018945D01*
X021304Y019104D02*
X019291Y019104D01*
X019212Y019262D02*
X021145Y019262D01*
X020987Y019421D02*
X019371Y019421D01*
X019425Y019579D02*
X020828Y019579D01*
X020805Y020055D02*
X020805Y021305D01*
X022180Y022680D01*
X023180Y022680D01*
X023280Y022580D01*
X023660Y022908D02*
X023700Y022908D01*
X023680Y022887D02*
X023680Y022887D01*
X023501Y023066D02*
X023859Y023066D01*
X024501Y023066D02*
X025565Y023066D01*
X025565Y022908D02*
X024660Y022908D01*
X024680Y022749D02*
X025565Y022749D01*
X025565Y022591D02*
X024680Y022591D01*
X024639Y022432D02*
X025565Y022432D01*
X025565Y022274D02*
X024481Y022274D01*
X024452Y022115D02*
X025565Y022115D01*
X025565Y021957D02*
X024580Y021957D01*
X025565Y023225D02*
X020281Y023225D01*
X020375Y023383D02*
X025565Y023383D01*
X025565Y023542D02*
X020375Y023542D01*
X020375Y023700D02*
X025565Y023700D01*
X025565Y023859D02*
X020308Y023859D01*
X020122Y023066D02*
X023059Y023066D01*
X021955Y022908D02*
X019405Y022908D01*
X019488Y023066D02*
X019247Y023066D01*
X019329Y023225D02*
X019088Y023225D01*
X019235Y023383D02*
X018930Y023383D01*
X018771Y023542D02*
X019235Y023542D01*
X019235Y023700D02*
X018613Y023700D01*
X018454Y023859D02*
X019302Y023859D01*
X018500Y022908D02*
X015905Y022908D01*
X015988Y023066D02*
X015747Y023066D01*
X015829Y023225D02*
X015588Y023225D01*
X015735Y023383D02*
X015430Y023383D01*
X015271Y023542D02*
X015735Y023542D01*
X015735Y023700D02*
X015113Y023700D01*
X014954Y023859D02*
X015802Y023859D01*
X016808Y023859D02*
X017430Y023859D01*
X017430Y023700D02*
X016875Y023700D01*
X016875Y023542D02*
X017430Y023542D01*
X017520Y023383D02*
X016875Y023383D01*
X016781Y023225D02*
X017678Y023225D01*
X018182Y023225D02*
X018183Y023225D01*
X018341Y023066D02*
X016622Y023066D01*
X016576Y022591D02*
X018817Y022591D01*
X018658Y022749D02*
X016064Y022749D01*
X015634Y022274D02*
X013375Y022274D01*
X013375Y022291D02*
X013041Y022625D01*
X012688Y022625D01*
X011680Y023633D01*
X011680Y023875D01*
X012319Y023875D01*
X012235Y023791D01*
X012235Y023319D01*
X012569Y022985D01*
X013041Y022985D01*
X013375Y023319D01*
X013375Y023791D01*
X013291Y023875D01*
X013930Y023875D01*
X013930Y023473D01*
X014223Y023180D01*
X014637Y023180D01*
X014682Y023225D01*
X015735Y022172D01*
X015735Y021819D01*
X015863Y021691D01*
X014930Y020758D01*
X014930Y020887D01*
X014637Y021180D01*
X014223Y021180D01*
X013930Y020887D01*
X013930Y020473D01*
X014223Y020180D01*
X014352Y020180D01*
X014284Y020111D01*
X014235Y019994D01*
X014235Y019825D01*
X014135Y019925D01*
X013930Y019925D01*
X013930Y019430D01*
X013930Y019430D01*
X013930Y019430D01*
X013435Y019430D01*
X013435Y019635D01*
X013725Y019925D01*
X013930Y019925D01*
X013930Y019430D01*
X013435Y019430D01*
X013435Y019225D01*
X013688Y018972D01*
X013375Y018660D01*
X013375Y018200D01*
X013645Y017930D01*
X013375Y017660D01*
X013375Y017200D01*
X013688Y016888D01*
X013500Y016700D01*
X013500Y016744D01*
X013451Y016861D01*
X012500Y017813D01*
X012500Y019047D01*
X013701Y020249D01*
X013750Y020366D01*
X013750Y020494D01*
X013750Y021116D01*
X013750Y021244D01*
X013701Y021361D01*
X013309Y021753D01*
X013375Y021819D01*
X013375Y022291D01*
X013375Y022115D02*
X015735Y022115D01*
X015735Y021957D02*
X013375Y021957D01*
X013354Y021798D02*
X015756Y021798D01*
X015812Y021640D02*
X013423Y021640D01*
X013582Y021481D02*
X015653Y021481D01*
X015495Y021323D02*
X013717Y021323D01*
X013750Y021164D02*
X014207Y021164D01*
X014048Y021006D02*
X013750Y021006D01*
X013750Y020847D02*
X013930Y020847D01*
X013930Y020689D02*
X013750Y020689D01*
X013750Y020530D02*
X013930Y020530D01*
X014031Y020372D02*
X013750Y020372D01*
X013666Y020213D02*
X014190Y020213D01*
X014260Y020055D02*
X013507Y020055D01*
X013349Y019896D02*
X013696Y019896D01*
X013537Y019738D02*
X013190Y019738D01*
X013032Y019579D02*
X013435Y019579D01*
X013435Y019421D02*
X012873Y019421D01*
X012715Y019262D02*
X013435Y019262D01*
X013556Y019104D02*
X012556Y019104D01*
X012500Y018945D02*
X013660Y018945D01*
X013502Y018787D02*
X012500Y018787D01*
X012500Y018628D02*
X013375Y018628D01*
X013375Y018470D02*
X012500Y018470D01*
X012500Y018311D02*
X013375Y018311D01*
X013423Y018153D02*
X012500Y018153D01*
X012500Y017994D02*
X013581Y017994D01*
X013551Y017836D02*
X012500Y017836D01*
X012636Y017677D02*
X013392Y017677D01*
X013375Y017519D02*
X012794Y017519D01*
X012953Y017360D02*
X013375Y017360D01*
X013375Y017202D02*
X013111Y017202D01*
X013270Y017043D02*
X013532Y017043D01*
X013428Y016885D02*
X013684Y016885D01*
X013526Y016726D02*
X013500Y016726D01*
X013180Y016680D02*
X012180Y017680D01*
X012180Y019180D01*
X013430Y020430D01*
X013430Y021180D01*
X012805Y021805D01*
X012805Y022055D01*
X011180Y023680D01*
X011680Y023700D02*
X012235Y023700D01*
X012235Y023542D02*
X011771Y023542D01*
X011930Y023383D02*
X012235Y023383D01*
X012329Y023225D02*
X012088Y023225D01*
X012247Y023066D02*
X012488Y023066D01*
X012405Y022908D02*
X015000Y022908D01*
X014841Y023066D02*
X013122Y023066D01*
X013281Y023225D02*
X014178Y023225D01*
X014020Y023383D02*
X013375Y023383D01*
X013375Y023542D02*
X013930Y023542D01*
X013930Y023700D02*
X013375Y023700D01*
X013308Y023859D02*
X013930Y023859D01*
X014430Y023680D02*
X014680Y023680D01*
X016305Y022055D01*
X016305Y021680D01*
X014555Y019930D01*
X014555Y019305D01*
X014680Y019180D01*
X015156Y019180D01*
X015156Y018680D02*
X015281Y018555D01*
X016180Y018555D01*
X016512Y018153D02*
X016531Y018153D01*
X017204Y018180D02*
X018430Y018180D01*
X018930Y018680D01*
X017930Y018680D02*
X017204Y018680D01*
X017204Y019180D02*
X017930Y019180D01*
X018055Y019305D01*
X018055Y019680D01*
X018555Y020180D01*
X019430Y020180D01*
X019555Y020055D01*
X020805Y020055D01*
X022180Y018680D01*
X024030Y018900D02*
X023580Y020115D01*
X024028Y020530D02*
X024217Y020530D01*
X024580Y020530D02*
X024580Y020530D01*
X024580Y020372D02*
X024580Y020372D01*
X024580Y020213D02*
X024580Y020213D01*
X024580Y020055D02*
X024580Y020055D01*
X024580Y019896D02*
X024580Y019896D01*
X024580Y019738D02*
X024580Y019738D01*
X024580Y019579D02*
X024580Y019579D01*
X024710Y019579D02*
X025501Y019579D01*
X025526Y019738D02*
X024980Y019738D01*
X025086Y019896D02*
X025552Y019896D01*
X025565Y020055D02*
X025127Y020055D01*
X025121Y020213D02*
X025565Y020213D01*
X025565Y020372D02*
X025067Y020372D01*
X024943Y020530D02*
X025565Y020530D01*
X025475Y019421D02*
X024178Y019421D01*
X024120Y019579D02*
X024450Y019579D01*
X024180Y019738D02*
X024065Y019738D01*
X024375Y019262D02*
X025450Y019262D01*
X025424Y019104D02*
X024534Y019104D01*
X024650Y018945D02*
X025391Y018945D01*
X025357Y018787D02*
X024650Y018787D01*
X024650Y018628D02*
X025323Y018628D01*
X025288Y018470D02*
X024547Y018470D01*
X024150Y018780D02*
X024030Y018900D01*
X021273Y016726D02*
X020898Y016726D01*
X020970Y016568D02*
X021115Y016568D01*
X018430Y015141D02*
X018430Y015141D01*
X018430Y014983D02*
X018430Y014983D01*
X018430Y014824D02*
X018430Y014824D01*
X018191Y015141D02*
X017594Y015141D01*
X017665Y014983D02*
X018032Y014983D01*
X017935Y014824D02*
X017854Y014824D01*
X017555Y014680D02*
X016180Y014680D01*
X014180Y012680D01*
X014180Y012180D01*
X014430Y011930D01*
X015156Y011930D01*
X015156Y011430D02*
X013430Y011430D01*
X013180Y011680D01*
X013180Y016680D01*
X012840Y016568D02*
X012245Y016568D01*
X012118Y016726D02*
X012681Y016726D01*
X012523Y016885D02*
X012118Y016885D01*
X012053Y017043D02*
X012364Y017043D01*
X012206Y017202D02*
X009404Y017202D01*
X009563Y017360D02*
X012047Y017360D01*
X011901Y017519D02*
X009721Y017519D01*
X009880Y017677D02*
X011860Y017677D01*
X011860Y017836D02*
X010038Y017836D01*
X010197Y017994D02*
X011860Y017994D01*
X011860Y018153D02*
X010355Y018153D01*
X010514Y018311D02*
X011860Y018311D01*
X011860Y018470D02*
X010672Y018470D01*
X010831Y018628D02*
X011860Y018628D01*
X011860Y018787D02*
X010989Y018787D01*
X011148Y018945D02*
X011860Y018945D01*
X011860Y019104D02*
X011585Y019104D01*
X011582Y019096D02*
X011618Y019184D01*
X011618Y019676D01*
X011582Y019764D01*
X011514Y019832D01*
X011426Y019868D01*
X010934Y019868D01*
X010846Y019832D01*
X010778Y019764D01*
X010742Y019676D01*
X010742Y019444D01*
X010180Y018883D01*
X010180Y019137D01*
X009887Y019430D01*
X009473Y019430D01*
X009180Y019137D01*
X009180Y018723D01*
X009473Y018430D01*
X009727Y018430D01*
X008349Y017051D01*
X008259Y016961D01*
X008210Y016844D01*
X008210Y016397D01*
X008030Y016217D01*
X008030Y015803D01*
X008323Y015510D01*
X008737Y015510D01*
X009030Y015803D01*
X009030Y016217D01*
X008850Y016397D01*
X008850Y016647D01*
X011194Y018992D01*
X011426Y018992D01*
X011514Y019028D01*
X011582Y019096D01*
X011618Y019262D02*
X011868Y019262D01*
X011968Y019421D02*
X011618Y019421D01*
X011618Y019579D02*
X012126Y019579D01*
X012285Y019738D02*
X011593Y019738D01*
X011387Y020180D02*
X011680Y020473D01*
X011680Y020887D01*
X011387Y021180D01*
X010973Y021180D01*
X010680Y020887D01*
X010680Y020473D01*
X010973Y020180D01*
X011387Y020180D01*
X011420Y020213D02*
X012426Y020213D01*
X012295Y020372D02*
X011579Y020372D01*
X011680Y020530D02*
X012295Y020530D01*
X012295Y020689D02*
X011680Y020689D01*
X011680Y020847D02*
X012376Y020847D01*
X012534Y021006D02*
X011562Y021006D01*
X011403Y021164D02*
X012993Y021164D01*
X013076Y021006D02*
X013110Y021006D01*
X012805Y021006D02*
X012805Y021006D01*
X012805Y020847D02*
X012805Y020847D01*
X012805Y020689D02*
X012805Y020689D01*
X012835Y021323D02*
X009080Y021323D01*
X009037Y021280D02*
X009330Y021573D01*
X009330Y021987D01*
X009037Y022280D01*
X008623Y022280D01*
X008330Y021987D01*
X008237Y022080D01*
X008237Y022080D01*
X008530Y022373D01*
X008530Y022787D01*
X008237Y023080D01*
X007823Y023080D01*
X007530Y022787D01*
X007530Y022373D01*
X007723Y022180D01*
X007723Y022180D01*
X007430Y021887D01*
X007430Y021473D01*
X007723Y021180D01*
X008137Y021180D01*
X008430Y021473D01*
X008623Y021280D01*
X009037Y021280D01*
X009238Y021481D02*
X012676Y021481D01*
X012414Y021640D02*
X009330Y021640D01*
X009330Y021798D02*
X012256Y021798D01*
X012235Y021957D02*
X009330Y021957D01*
X009202Y022115D02*
X012235Y022115D01*
X012134Y022274D02*
X009044Y022274D01*
X008616Y022274D02*
X008431Y022274D01*
X008458Y022115D02*
X008272Y022115D01*
X008330Y021987D02*
X008330Y021987D01*
X008530Y022432D02*
X011975Y022432D01*
X011817Y022591D02*
X008530Y022591D01*
X008530Y022749D02*
X011658Y022749D01*
X011500Y022908D02*
X008410Y022908D01*
X008251Y023066D02*
X011341Y023066D01*
X010928Y023225D02*
X006855Y023225D01*
X006855Y023383D02*
X010770Y023383D01*
X010680Y023542D02*
X006855Y023542D01*
X006855Y023700D02*
X010680Y023700D01*
X010680Y023859D02*
X006855Y023859D01*
X006855Y023066D02*
X007809Y023066D01*
X007650Y022908D02*
X006855Y022908D01*
X006855Y022749D02*
X007530Y022749D01*
X007530Y022591D02*
X006855Y022591D01*
X006855Y022432D02*
X007530Y022432D01*
X007629Y022274D02*
X006855Y022274D01*
X006855Y022115D02*
X007658Y022115D01*
X007499Y021957D02*
X006855Y021957D01*
X006855Y021798D02*
X007430Y021798D01*
X007430Y021640D02*
X006855Y021640D01*
X006855Y021481D02*
X007430Y021481D01*
X007580Y021323D02*
X006855Y021323D01*
X006855Y021164D02*
X010957Y021164D01*
X010798Y021006D02*
X006855Y021006D01*
X006855Y020847D02*
X010680Y020847D01*
X010680Y020689D02*
X008824Y020689D01*
X008816Y020697D02*
X008591Y020790D01*
X008349Y020790D01*
X008124Y020697D01*
X007953Y020526D01*
X007933Y020478D01*
X007890Y020538D01*
X007828Y020600D01*
X007758Y020650D01*
X007681Y020690D01*
X007599Y020716D01*
X007513Y020730D01*
X007470Y020730D01*
X007470Y020180D01*
X007470Y020180D01*
X007470Y020730D01*
X007427Y020730D01*
X007341Y020716D01*
X007259Y020690D01*
X007182Y020650D01*
X007112Y020600D01*
X007050Y020538D01*
X007000Y020468D01*
X006960Y020391D01*
X006934Y020309D01*
X006920Y020223D01*
X006920Y020180D01*
X007470Y020180D01*
X007470Y019630D01*
X007513Y019630D01*
X007599Y019644D01*
X007681Y019670D01*
X007758Y019710D01*
X007828Y019760D01*
X007890Y019822D01*
X007933Y019882D01*
X007953Y019834D01*
X008124Y019663D01*
X008349Y019570D01*
X008591Y019570D01*
X008816Y019663D01*
X008987Y019834D01*
X009080Y020059D01*
X009080Y020301D01*
X008987Y020526D01*
X008816Y020697D01*
X008983Y020530D02*
X010680Y020530D01*
X010781Y020372D02*
X009051Y020372D01*
X009080Y020213D02*
X010940Y020213D01*
X010767Y019738D02*
X008890Y019738D01*
X009013Y019896D02*
X012443Y019896D01*
X012584Y020055D02*
X009078Y020055D01*
X008737Y019510D02*
X008323Y019510D01*
X008030Y019217D01*
X008030Y018803D01*
X008323Y018510D01*
X008737Y018510D01*
X009030Y018803D01*
X009030Y019217D01*
X008737Y019510D01*
X008827Y019421D02*
X009463Y019421D01*
X009305Y019262D02*
X008985Y019262D01*
X009030Y019104D02*
X009180Y019104D01*
X009180Y018945D02*
X009030Y018945D01*
X009014Y018787D02*
X009180Y018787D01*
X009275Y018628D02*
X008855Y018628D01*
X009433Y018470D02*
X007132Y018470D01*
X007097Y018628D02*
X008205Y018628D01*
X008046Y018787D02*
X007063Y018787D01*
X007029Y018945D02*
X008030Y018945D01*
X008030Y019104D02*
X006996Y019104D01*
X006970Y019262D02*
X008075Y019262D01*
X008233Y019421D02*
X006945Y019421D01*
X006919Y019579D02*
X008327Y019579D01*
X008613Y019579D02*
X010742Y019579D01*
X010718Y019421D02*
X009897Y019421D01*
X010055Y019262D02*
X010559Y019262D01*
X010401Y019104D02*
X010180Y019104D01*
X010180Y018945D02*
X010242Y018945D01*
X009608Y018311D02*
X007166Y018311D01*
X007200Y018153D02*
X009450Y018153D01*
X009291Y017994D02*
X007235Y017994D01*
X007269Y017836D02*
X009133Y017836D01*
X008974Y017677D02*
X007303Y017677D01*
X007338Y017519D02*
X008816Y017519D01*
X008657Y017360D02*
X007372Y017360D01*
X007408Y017202D02*
X008499Y017202D01*
X008340Y017043D02*
X007455Y017043D01*
X007501Y016885D02*
X008227Y016885D01*
X008210Y016726D02*
X007547Y016726D01*
X007594Y016568D02*
X008210Y016568D01*
X008210Y016409D02*
X007640Y016409D01*
X007687Y016251D02*
X008063Y016251D01*
X008030Y016092D02*
X007733Y016092D01*
X007779Y015934D02*
X008030Y015934D01*
X008058Y015775D02*
X007826Y015775D01*
X007872Y015617D02*
X008216Y015617D01*
X007919Y015458D02*
X012449Y015458D01*
X012291Y015617D02*
X009989Y015617D01*
X009862Y015490D02*
X010120Y015748D01*
X010120Y015930D01*
X010120Y016112D01*
X009862Y016370D01*
X009680Y016370D01*
X009680Y015930D01*
X009680Y015930D01*
X010120Y015930D01*
X009680Y015930D01*
X009680Y015930D01*
X009680Y015930D01*
X009240Y015930D01*
X009240Y016112D01*
X009498Y016370D01*
X009680Y016370D01*
X009680Y015930D01*
X009680Y015490D01*
X009862Y015490D01*
X009680Y015490D02*
X009680Y015930D01*
X009680Y015930D01*
X009240Y015930D01*
X009240Y015748D01*
X009498Y015490D01*
X009680Y015490D01*
X009680Y015617D02*
X009680Y015617D01*
X009680Y015775D02*
X009680Y015775D01*
X009680Y015934D02*
X009680Y015934D01*
X009680Y016092D02*
X009680Y016092D01*
X009680Y016251D02*
X009680Y016251D01*
X009982Y016251D02*
X011413Y016251D01*
X011252Y016409D02*
X008850Y016409D01*
X008850Y016568D02*
X011242Y016568D01*
X011242Y016726D02*
X008929Y016726D01*
X009087Y016885D02*
X011242Y016885D01*
X011307Y017043D02*
X009246Y017043D01*
X008530Y016780D02*
X008530Y016010D01*
X008844Y015617D02*
X009371Y015617D01*
X009240Y015775D02*
X009002Y015775D01*
X009030Y015934D02*
X009240Y015934D01*
X009240Y016092D02*
X009030Y016092D01*
X008997Y016251D02*
X009378Y016251D01*
X010120Y016092D02*
X011815Y016092D01*
X011974Y015934D02*
X010120Y015934D01*
X010120Y015775D02*
X012132Y015775D01*
X012608Y015300D02*
X007974Y015300D01*
X008033Y015141D02*
X012610Y015141D01*
X012930Y015430D02*
X012930Y013055D01*
X012430Y012555D01*
X012430Y012180D01*
X011936Y011654D02*
X011123Y011654D01*
X011382Y011813D02*
X011782Y011813D01*
X011674Y011971D02*
X011541Y011971D01*
X011730Y011496D02*
X009606Y011496D01*
X009519Y011654D02*
X010237Y011654D01*
X009978Y011813D02*
X009433Y011813D01*
X009352Y011971D02*
X009819Y011971D01*
X009716Y012130D02*
X009280Y012130D01*
X009207Y012288D02*
X009636Y012288D01*
X009593Y012447D02*
X009135Y012447D01*
X009063Y012605D02*
X009570Y012605D01*
X009570Y012764D02*
X008990Y012764D01*
X008918Y012922D02*
X009596Y012922D01*
X009638Y013081D02*
X008846Y013081D01*
X008773Y013239D02*
X009721Y013239D01*
X009828Y013398D02*
X008701Y013398D01*
X008629Y013556D02*
X009986Y013556D01*
X010252Y013715D02*
X008564Y013715D01*
X008505Y013873D02*
X011417Y013873D01*
X011380Y013715D02*
X011108Y013715D01*
X011374Y013556D02*
X011389Y013556D01*
X011516Y014032D02*
X008446Y014032D01*
X008387Y014190D02*
X011772Y014190D01*
X011792Y014231D02*
X011864Y014220D01*
X012170Y014220D01*
X012170Y014670D01*
X011440Y014670D01*
X011440Y014644D01*
X011451Y014572D01*
X011474Y014503D01*
X011507Y014439D01*
X011549Y014380D01*
X011600Y014329D01*
X011659Y014287D01*
X011723Y014254D01*
X011792Y014231D01*
X011581Y014349D02*
X008328Y014349D01*
X008269Y014507D02*
X011473Y014507D01*
X011440Y014666D02*
X008210Y014666D01*
X008151Y014824D02*
X011463Y014824D01*
X011552Y014983D02*
X008092Y014983D01*
X008530Y016780D02*
X011180Y019430D01*
X013930Y019579D02*
X013930Y019579D01*
X013930Y019738D02*
X013930Y019738D01*
X013930Y019896D02*
X013930Y019896D01*
X014164Y019896D02*
X014235Y019896D01*
X015132Y020055D02*
X016084Y020055D01*
X016094Y020045D02*
X016305Y020045D01*
X016516Y020045D01*
X016815Y020344D01*
X016815Y020555D01*
X016305Y020555D01*
X016305Y020045D01*
X016305Y020555D01*
X016305Y020555D01*
X016305Y020555D01*
X015795Y020555D01*
X015795Y020344D01*
X016094Y020045D01*
X016305Y020055D02*
X016305Y020055D01*
X016305Y020213D02*
X016305Y020213D01*
X016305Y020372D02*
X016305Y020372D01*
X016305Y020530D02*
X016305Y020530D01*
X016305Y020689D02*
X016305Y020689D01*
X016305Y020847D02*
X016305Y020847D01*
X016305Y021006D02*
X016305Y021006D01*
X016242Y021164D02*
X017707Y021164D01*
X017548Y021006D02*
X016576Y021006D01*
X016734Y020847D02*
X017430Y020847D01*
X017430Y020689D02*
X016815Y020689D01*
X016815Y020530D02*
X017430Y020530D01*
X017531Y020372D02*
X016815Y020372D01*
X016684Y020213D02*
X017690Y020213D01*
X017874Y019951D02*
X017874Y019951D01*
X017818Y019896D02*
X017788Y019896D01*
X017977Y020055D02*
X016526Y020055D01*
X016619Y019896D02*
X016417Y019896D01*
X016500Y019738D02*
X016591Y019738D01*
X016591Y019680D02*
X017204Y019680D01*
X016591Y019680D01*
X016591Y019579D02*
X016517Y019579D01*
X016180Y019680D02*
X016180Y019180D01*
X016180Y019680D02*
X015156Y019680D01*
X015291Y020213D02*
X015926Y020213D01*
X015795Y020372D02*
X015449Y020372D01*
X015608Y020530D02*
X015795Y020530D01*
X015795Y020689D02*
X015766Y020689D01*
X015178Y021006D02*
X014812Y021006D01*
X014930Y020847D02*
X015019Y020847D01*
X015336Y021164D02*
X014653Y021164D01*
X015475Y022432D02*
X013234Y022432D01*
X013076Y022591D02*
X015317Y022591D01*
X015158Y022749D02*
X012564Y022749D01*
X012302Y023859D02*
X011680Y023859D01*
X014682Y023225D02*
X014683Y023225D01*
X016734Y022432D02*
X018975Y022432D01*
X019134Y022274D02*
X016875Y022274D01*
X016875Y022115D02*
X019235Y022115D01*
X019235Y021957D02*
X016875Y021957D01*
X016854Y021798D02*
X019256Y021798D01*
X019414Y021640D02*
X016696Y021640D01*
X016559Y021481D02*
X020532Y021481D01*
X020485Y021323D02*
X016400Y021323D01*
X017204Y019896D02*
X017204Y019896D01*
X017204Y019738D02*
X017204Y019738D01*
X017204Y019680D02*
X017204Y019680D01*
X018430Y020530D02*
X019295Y020530D01*
X019295Y020689D02*
X018430Y020689D01*
X018430Y020847D02*
X019376Y020847D01*
X019534Y021006D02*
X018312Y021006D01*
X018153Y021164D02*
X020485Y021164D01*
X020485Y021006D02*
X020076Y021006D01*
X020234Y020847D02*
X020485Y020847D01*
X020485Y020689D02*
X020315Y020689D01*
X020315Y020530D02*
X020485Y020530D01*
X019805Y020689D02*
X019805Y020689D01*
X019805Y020847D02*
X019805Y020847D01*
X019805Y021006D02*
X019805Y021006D01*
X020196Y021640D02*
X020687Y021640D01*
X020845Y021798D02*
X020354Y021798D01*
X020375Y021957D02*
X021004Y021957D01*
X021162Y022115D02*
X020375Y022115D01*
X020375Y022274D02*
X021321Y022274D01*
X021479Y022432D02*
X020234Y022432D01*
X020076Y022591D02*
X021638Y022591D01*
X021796Y022749D02*
X019564Y022749D01*
X019805Y022055D02*
X018180Y023680D01*
X017930Y023680D01*
X018930Y019680D02*
X019425Y019680D01*
X018930Y019680D01*
X018930Y019680D01*
X019425Y019738D02*
X019485Y019738D01*
X018072Y017836D02*
X017717Y017836D01*
X015156Y018180D02*
X014406Y017430D01*
X013930Y017430D01*
X013930Y018430D02*
X014180Y018680D01*
X015156Y018680D01*
X012860Y016409D02*
X012404Y016409D01*
X012562Y016251D02*
X012860Y016251D01*
X012860Y016092D02*
X012721Y016092D01*
X012930Y015430D02*
X011680Y016680D01*
X012170Y014983D02*
X012190Y014983D01*
X012190Y014824D02*
X012170Y014824D01*
X012170Y014666D02*
X012190Y014666D01*
X012190Y014507D02*
X012170Y014507D01*
X012170Y014349D02*
X012190Y014349D01*
X012588Y014190D02*
X012610Y014190D01*
X014558Y012605D02*
X015220Y012605D01*
X015125Y012764D02*
X014716Y012764D01*
X014500Y012447D02*
X015379Y012447D01*
X015981Y012447D02*
X016463Y012447D01*
X016305Y012605D02*
X016140Y012605D01*
X016680Y012605D02*
X016680Y012605D01*
X016680Y012764D02*
X016680Y012764D01*
X016680Y012922D02*
X016680Y012922D01*
X017055Y012605D02*
X017860Y012605D01*
X017769Y012764D02*
X017175Y012764D01*
X017175Y012922D02*
X017610Y012922D01*
X017452Y013081D02*
X017175Y013081D01*
X017071Y013239D02*
X017293Y013239D01*
X018430Y012805D02*
X019680Y012805D01*
X020118Y013243D01*
X019180Y012180D02*
X018430Y011430D01*
X017204Y011430D01*
X017204Y010930D02*
X018930Y010930D01*
X019180Y011180D01*
X018930Y010430D02*
X019180Y010180D01*
X018930Y010430D02*
X017204Y010430D01*
X016611Y009752D02*
X018593Y009752D01*
X018394Y009594D02*
X019860Y009594D01*
X019860Y009752D02*
X019767Y009752D01*
X019860Y009435D02*
X018552Y009435D01*
X018580Y009277D02*
X019824Y009277D01*
X019665Y009118D02*
X018580Y009118D01*
X018547Y008960D02*
X019507Y008960D01*
X019348Y008801D02*
X018388Y008801D01*
X018080Y009200D02*
X016300Y009200D01*
X016170Y009330D01*
X016721Y009594D02*
X017766Y009594D01*
X017772Y008801D02*
X016487Y008801D01*
X016623Y008643D02*
X019190Y008643D01*
X019031Y008484D02*
X016698Y008484D01*
X016720Y008326D02*
X018873Y008326D01*
X018714Y008167D02*
X016695Y008167D01*
X016616Y008009D02*
X018556Y008009D01*
X016580Y007330D02*
X015330Y007330D01*
X014680Y006680D01*
X013180Y008180D01*
X013180Y010180D01*
X014180Y010180D01*
X014680Y009680D01*
X015180Y009680D01*
X014833Y010069D02*
X014744Y010069D01*
X014543Y010386D02*
X014427Y010386D01*
X014530Y010545D02*
X014543Y010545D01*
X014180Y010930D02*
X015156Y010930D01*
X015156Y010430D02*
X015156Y010430D01*
X015156Y010386D02*
X015156Y010386D01*
X015156Y010228D02*
X015156Y010228D01*
X013180Y010180D02*
X012430Y010180D01*
X011943Y010703D02*
X010038Y010703D01*
X010124Y010545D02*
X011779Y010545D01*
X011672Y010386D02*
X010211Y010386D01*
X010299Y010228D02*
X011630Y010228D01*
X011633Y010069D02*
X010401Y010069D01*
X010503Y009911D02*
X011699Y009911D01*
X011843Y009752D02*
X010604Y009752D01*
X010706Y009594D02*
X012860Y009594D01*
X012860Y009435D02*
X010808Y009435D01*
X010910Y009277D02*
X012860Y009277D01*
X012860Y009118D02*
X011012Y009118D01*
X011113Y008960D02*
X012860Y008960D01*
X014280Y007533D02*
X015080Y007533D01*
X014922Y007375D02*
X014438Y007375D01*
X014597Y007216D02*
X014763Y007216D01*
X014680Y006680D02*
X014180Y006180D01*
X013909Y005473D02*
X015935Y005473D01*
X017425Y005473D02*
X018511Y005473D01*
X018358Y005314D02*
X014062Y005314D01*
X017742Y005790D02*
X017783Y005790D01*
X011733Y010862D02*
X009951Y010862D01*
X009865Y011020D02*
X011653Y011020D01*
X011630Y011179D02*
X009778Y011179D01*
X009692Y011337D02*
X011652Y011337D01*
X014525Y012288D02*
X014675Y012288D01*
X008050Y019738D02*
X007797Y019738D01*
X007470Y019738D02*
X007470Y019738D01*
X007470Y019630D02*
X007470Y020180D01*
X007470Y020180D01*
X007470Y020180D01*
X006920Y020180D01*
X006920Y020137D01*
X006934Y020051D01*
X006960Y019969D01*
X007000Y019892D01*
X007050Y019822D01*
X007112Y019760D01*
X007182Y019710D01*
X007259Y019670D01*
X007341Y019644D01*
X007427Y019630D01*
X007470Y019630D01*
X007470Y019896D02*
X007470Y019896D01*
X007470Y020055D02*
X007470Y020055D01*
X007470Y020213D02*
X007470Y020213D01*
X007470Y020372D02*
X007470Y020372D01*
X007470Y020530D02*
X007470Y020530D01*
X007470Y020689D02*
X007470Y020689D01*
X007257Y020689D02*
X006855Y020689D01*
X006855Y020530D02*
X007044Y020530D01*
X006954Y020372D02*
X006855Y020372D01*
X006855Y020213D02*
X006920Y020213D01*
X006933Y020055D02*
X006855Y020055D01*
X006868Y019896D02*
X006997Y019896D01*
X006894Y019738D02*
X007143Y019738D01*
X007896Y020530D02*
X007957Y020530D01*
X008116Y020689D02*
X007683Y020689D01*
X008280Y021323D02*
X008580Y021323D01*
X008430Y021473D02*
X008430Y021473D01*
D21*
X011180Y019430D03*
X011680Y016680D03*
X013680Y013180D03*
X014180Y010930D03*
X015180Y009680D03*
X022965Y016965D03*
X017930Y018680D03*
X016180Y018555D03*
X016180Y019180D03*
M02*
