G75*
%MOIN*%
%OFA0B0*%
%FSLAX24Y24*%
%IPPOS*%
%LPD*%
%AMOC8*
5,1,8,0,0,1.08239X$1,22.5*
%
%ADD10C,0.1340*%
%ADD11C,0.0820*%
%ADD12OC8,0.0600*%
%ADD13OC8,0.0740*%
%ADD14OC8,0.0710*%
%ADD15C,0.0680*%
%ADD16OC8,0.0680*%
%ADD17C,0.0640*%
%ADD18R,0.0476X0.0476*%
D10*
X010680Y012680D03*
X016180Y016805D03*
X021805Y012680D03*
D11*
X016170Y009330D03*
X016170Y008330D03*
X023580Y020115D03*
X024580Y020115D03*
X008470Y020180D03*
X007470Y020180D03*
D12*
X008530Y019010D03*
X009680Y018930D03*
X011180Y020680D03*
X008830Y021780D03*
X007930Y021680D03*
X008030Y022580D03*
X011180Y023680D03*
X014430Y023680D03*
X014430Y020680D03*
X017930Y020680D03*
X017930Y023680D03*
X023280Y022580D03*
X024180Y022680D03*
X024080Y021780D03*
X024150Y018780D03*
X022180Y018680D03*
X022180Y015680D03*
X024150Y015780D03*
X018080Y009200D03*
X016580Y007330D03*
X016680Y006430D03*
X015780Y006530D03*
X014180Y006180D03*
X014180Y009180D03*
X018080Y006200D03*
X009680Y015930D03*
X008530Y016010D03*
D13*
X012805Y020555D03*
X012805Y022055D03*
X012805Y023555D03*
X016305Y023555D03*
X016305Y022055D03*
X016305Y020555D03*
X019805Y020555D03*
X019805Y022055D03*
X019805Y023555D03*
D14*
X018930Y019680D03*
X018930Y018680D03*
X018430Y014680D03*
X018430Y013680D03*
X016680Y012930D03*
X015680Y012930D03*
X013930Y016430D03*
X013930Y017430D03*
X013930Y018430D03*
X013930Y019430D03*
D15*
X018430Y016430D03*
D16*
X019430Y016430D03*
X020430Y016430D03*
X020430Y017430D03*
X019430Y017430D03*
X018430Y017430D03*
D17*
X012710Y010180D02*
X012150Y010180D01*
X012150Y011180D02*
X012710Y011180D01*
X012710Y012180D02*
X012150Y012180D01*
X011900Y013680D02*
X012460Y013680D01*
X012460Y014680D02*
X011900Y014680D01*
X018900Y012180D02*
X019460Y012180D01*
X019460Y011180D02*
X018900Y011180D01*
X018900Y010180D02*
X019460Y010180D01*
X019900Y013680D02*
X020460Y013680D01*
X020460Y014680D02*
X019900Y014680D01*
D18*
X022965Y016965D03*
X017930Y018680D03*
X016180Y018555D03*
X016180Y019180D03*
X011680Y016680D03*
X011180Y019430D03*
X013680Y013180D03*
X014180Y010930D03*
X015180Y009680D03*
M02*
