%
M48
M72
T01C0.0236
T02C0.0320
T03C0.0360
T04C0.0400
T05C0.1260
%
T01
X14180Y10930
X15180Y9680
X13680Y13180
X11680Y16680
X11180Y19430
X16180Y19180
X16180Y18555
X17930Y18680
X22965Y16965
T02
X22180Y15680
X24150Y15780
X22180Y18680
X23580Y20115
X24580Y20115
X24150Y18780
X24080Y21780
X24180Y22680
X23280Y22580
X19805Y22055
X19805Y20555
X18930Y19680
X17930Y20680
X16305Y20555
X16305Y22055
X16305Y23555
X17930Y23680
X19805Y23555
X14430Y23680
X12805Y23555
X12805Y22055
X12805Y20555
X13930Y19430
X13930Y18430
X13930Y17430
X13930Y16430
X15680Y12930
X16680Y12930
X18430Y13680
X18430Y14680
X18930Y18680
X14430Y20680
X11180Y20680
X9680Y18930
X8530Y19010
X8470Y20180
X7470Y20180
X7930Y21680
X8830Y21780
X8030Y22580
X11180Y23680
X9680Y15930
X8530Y16010
X16170Y9330
X16170Y8330
X16580Y7330
X16680Y6430
X15780Y6530
X14180Y6180
X14180Y9180
X18080Y9200
X18080Y6200
T03
X12430Y10180
X12430Y11180
X12430Y12180
X12180Y13680
X12180Y14680
X19180Y12180
X19180Y11180
X19180Y10180
X20180Y13680
X20180Y14680
T04
X20430Y16430
X19430Y16430
X18430Y16430
X18430Y17430
X19430Y17430
X20430Y17430
T05
X16180Y16805
X10680Y12680
X21805Y12680
M30
