G75*
%MOIN*%
%OFA0B0*%
%FSLAX24Y24*%
%IPPOS*%
%LPD*%
%AMOC8*
5,1,8,0,0,1.08239X$1,22.5*
%
%ADD10C,0.0030*%
%ADD11C,0.0020*%
%ADD12C,0.0060*%
%ADD13C,0.0070*%
%ADD14C,0.0100*%
%ADD15C,0.0050*%
D10*
X010943Y013570D02*
X011067Y013693D01*
X011067Y013940D01*
X011188Y013755D02*
X011435Y013755D01*
X011312Y013632D02*
X011312Y013879D01*
X010943Y013570D02*
X010820Y013693D01*
X010820Y013940D01*
X010810Y014445D02*
X010810Y014815D01*
X010932Y014815D02*
X011117Y014815D01*
X011179Y014754D01*
X011179Y014507D01*
X011117Y014445D01*
X010932Y014445D01*
X010932Y014815D01*
X010563Y014815D02*
X010563Y014445D01*
X010442Y014507D02*
X010442Y014630D01*
X010318Y014630D01*
X010195Y014507D02*
X010195Y014754D01*
X010257Y014815D01*
X010380Y014815D01*
X010442Y014754D01*
X010563Y014815D02*
X010810Y014445D01*
X010442Y014507D02*
X010380Y014445D01*
X010257Y014445D01*
X010195Y014507D01*
X021070Y014507D02*
X021132Y014445D01*
X021255Y014445D01*
X021317Y014507D01*
X021317Y014630D01*
X021193Y014630D01*
X021070Y014507D02*
X021070Y014754D01*
X021132Y014815D01*
X021255Y014815D01*
X021317Y014754D01*
X021438Y014815D02*
X021685Y014445D01*
X021685Y014815D01*
X021807Y014815D02*
X021992Y014815D01*
X022054Y014754D01*
X022054Y014507D01*
X021992Y014445D01*
X021807Y014445D01*
X021807Y014815D01*
X021438Y014815D02*
X021438Y014445D01*
X021317Y013940D02*
X021317Y013693D01*
X021193Y013570D01*
X021070Y013693D01*
X021070Y013940D01*
X021438Y013755D02*
X021685Y013755D01*
X021562Y013632D02*
X021562Y013879D01*
D11*
X021346Y015565D02*
X021199Y015785D01*
X021125Y015748D02*
X021088Y015785D01*
X021015Y015785D01*
X020978Y015748D01*
X020978Y015602D01*
X021015Y015565D01*
X021088Y015565D01*
X021125Y015602D01*
X021199Y015565D02*
X021346Y015785D01*
X020904Y015785D02*
X020757Y015785D01*
X020830Y015785D02*
X020830Y015565D01*
X020683Y015602D02*
X020646Y015565D01*
X020573Y015565D01*
X020536Y015602D01*
X020536Y015785D01*
X020462Y015748D02*
X020425Y015785D01*
X020352Y015785D01*
X020315Y015748D01*
X020315Y015602D01*
X020352Y015565D01*
X020425Y015565D01*
X020462Y015602D01*
X020462Y015748D01*
X020683Y015785D02*
X020683Y015602D01*
X019971Y017940D02*
X019824Y018160D01*
X019750Y018123D02*
X019713Y018160D01*
X019603Y018160D01*
X019603Y017940D01*
X019713Y017940D01*
X019750Y017977D01*
X019750Y018123D01*
X019824Y017940D02*
X019971Y018160D01*
X020440Y018138D02*
X020440Y018285D01*
X020440Y018138D02*
X020513Y018065D01*
X020587Y018138D01*
X020587Y018285D01*
X020661Y018175D02*
X020808Y018175D01*
X020734Y018248D02*
X020734Y018102D01*
X019529Y018160D02*
X019382Y018160D01*
X019455Y018160D02*
X019455Y017940D01*
X019308Y017977D02*
X019308Y018160D01*
X019161Y018160D02*
X019161Y017977D01*
X019198Y017940D01*
X019271Y017940D01*
X019308Y017977D01*
X019087Y017977D02*
X019087Y018123D01*
X019050Y018160D01*
X018977Y018160D01*
X018940Y018123D01*
X018940Y017977D01*
X018977Y017940D01*
X019050Y017940D01*
X019087Y017977D01*
X017866Y017545D02*
X017719Y017325D01*
X017645Y017362D02*
X017608Y017325D01*
X017535Y017325D01*
X017498Y017362D01*
X017535Y017435D02*
X017498Y017472D01*
X017498Y017508D01*
X017535Y017545D01*
X017608Y017545D01*
X017645Y017508D01*
X017608Y017435D02*
X017645Y017398D01*
X017645Y017362D01*
X017608Y017435D02*
X017535Y017435D01*
X017424Y017545D02*
X017277Y017545D01*
X017350Y017545D02*
X017350Y017325D01*
X017203Y017362D02*
X017203Y017545D01*
X017056Y017545D02*
X017056Y017362D01*
X017093Y017325D01*
X017166Y017325D01*
X017203Y017362D01*
X016982Y017362D02*
X016982Y017508D01*
X016945Y017545D01*
X016872Y017545D01*
X016835Y017508D01*
X016835Y017362D01*
X016872Y017325D01*
X016945Y017325D01*
X016982Y017362D01*
X017719Y017545D02*
X017866Y017325D01*
D12*
X017930Y017680D02*
X017930Y016180D01*
X018180Y015930D01*
X018680Y015930D01*
X018930Y016180D01*
X019180Y015930D01*
X019680Y015930D01*
X019930Y016180D01*
X020180Y015930D01*
X020680Y015930D01*
X020930Y016180D01*
X020930Y017680D01*
X020680Y017930D01*
X020180Y017930D01*
X019930Y017680D01*
X019680Y017930D01*
X019180Y017930D01*
X018930Y017680D01*
X018680Y017930D01*
X018180Y017930D01*
X017930Y017680D01*
X018530Y018230D02*
X019330Y018230D01*
X019347Y018232D01*
X019364Y018236D01*
X019380Y018243D01*
X019394Y018253D01*
X019407Y018266D01*
X019417Y018280D01*
X019424Y018296D01*
X019428Y018313D01*
X019430Y018330D01*
X019430Y020030D01*
X019428Y020047D01*
X019424Y020064D01*
X019417Y020080D01*
X019407Y020094D01*
X019394Y020107D01*
X019380Y020117D01*
X019364Y020124D01*
X019347Y020128D01*
X019330Y020130D01*
X018530Y020130D01*
X018513Y020128D01*
X018496Y020124D01*
X018480Y020117D01*
X018466Y020107D01*
X018453Y020094D01*
X018443Y020080D01*
X018436Y020064D01*
X018432Y020047D01*
X018430Y020030D01*
X018430Y018330D01*
X018432Y018313D01*
X018436Y018296D01*
X018443Y018280D01*
X018453Y018266D01*
X018466Y018253D01*
X018480Y018243D01*
X018496Y018236D01*
X018513Y018232D01*
X018530Y018230D01*
X018930Y019030D02*
X018930Y019080D01*
X018930Y019280D02*
X018930Y019330D01*
X018380Y021030D02*
X018380Y021180D01*
X018330Y021230D01*
X018330Y023130D01*
X018380Y023180D01*
X018380Y023330D01*
X018378Y023347D01*
X018374Y023364D01*
X018367Y023380D01*
X018357Y023394D01*
X018344Y023407D01*
X018330Y023417D01*
X018314Y023424D01*
X018297Y023428D01*
X018280Y023430D01*
X017580Y023430D02*
X017563Y023428D01*
X017546Y023424D01*
X017530Y023417D01*
X017516Y023407D01*
X017503Y023394D01*
X017493Y023380D01*
X017486Y023364D01*
X017482Y023347D01*
X017480Y023330D01*
X017480Y023180D01*
X017530Y023130D01*
X017530Y021230D01*
X017480Y021180D01*
X017480Y021030D01*
X017482Y021013D01*
X017486Y020996D01*
X017493Y020980D01*
X017503Y020966D01*
X017516Y020953D01*
X017530Y020943D01*
X017546Y020936D01*
X017563Y020932D01*
X017580Y020930D01*
X018280Y020930D02*
X018297Y020932D01*
X018314Y020936D01*
X018330Y020943D01*
X018344Y020953D01*
X018357Y020966D01*
X018367Y020980D01*
X018374Y020996D01*
X018378Y021013D01*
X018380Y021030D01*
X014880Y021030D02*
X014880Y021180D01*
X014830Y021230D01*
X014830Y023130D01*
X014880Y023180D01*
X014880Y023330D01*
X014878Y023347D01*
X014874Y023364D01*
X014867Y023380D01*
X014857Y023394D01*
X014844Y023407D01*
X014830Y023417D01*
X014814Y023424D01*
X014797Y023428D01*
X014780Y023430D01*
X014080Y023430D02*
X014063Y023428D01*
X014046Y023424D01*
X014030Y023417D01*
X014016Y023407D01*
X014003Y023394D01*
X013993Y023380D01*
X013986Y023364D01*
X013982Y023347D01*
X013980Y023330D01*
X013980Y023180D01*
X014030Y023130D01*
X014030Y021230D01*
X013980Y021180D01*
X013980Y021030D01*
X013982Y021013D01*
X013986Y020996D01*
X013993Y020980D01*
X014003Y020966D01*
X014016Y020953D01*
X014030Y020943D01*
X014046Y020936D01*
X014063Y020932D01*
X014080Y020930D01*
X014780Y020930D02*
X014797Y020932D01*
X014814Y020936D01*
X014830Y020943D01*
X014844Y020953D01*
X014857Y020966D01*
X014867Y020980D01*
X014874Y020996D01*
X014878Y021013D01*
X014880Y021030D01*
X014330Y019880D02*
X013530Y019880D01*
X013513Y019878D01*
X013496Y019874D01*
X013480Y019867D01*
X013466Y019857D01*
X013453Y019844D01*
X013443Y019830D01*
X013436Y019814D01*
X013432Y019797D01*
X013430Y019780D01*
X013430Y018080D01*
X013432Y018063D01*
X013436Y018046D01*
X013443Y018030D01*
X013453Y018016D01*
X013466Y018003D01*
X013480Y017993D01*
X013496Y017986D01*
X013513Y017982D01*
X013530Y017980D01*
X014330Y017980D01*
X014347Y017982D01*
X014364Y017986D01*
X014380Y017993D01*
X014394Y018003D01*
X014407Y018016D01*
X014417Y018030D01*
X014424Y018046D01*
X014428Y018063D01*
X014430Y018080D01*
X014430Y019780D01*
X014428Y019797D01*
X014424Y019814D01*
X014417Y019830D01*
X014407Y019844D01*
X014394Y019857D01*
X014380Y019867D01*
X014364Y019874D01*
X014347Y019878D01*
X014330Y019880D01*
X013930Y019080D02*
X013930Y019030D01*
X013930Y018830D02*
X013930Y018780D01*
X014330Y017880D02*
X013530Y017880D01*
X013513Y017878D01*
X013496Y017874D01*
X013480Y017867D01*
X013466Y017857D01*
X013453Y017844D01*
X013443Y017830D01*
X013436Y017814D01*
X013432Y017797D01*
X013430Y017780D01*
X013430Y016080D01*
X013432Y016063D01*
X013436Y016046D01*
X013443Y016030D01*
X013453Y016016D01*
X013466Y016003D01*
X013480Y015993D01*
X013496Y015986D01*
X013513Y015982D01*
X013530Y015980D01*
X014330Y015980D01*
X014347Y015982D01*
X014364Y015986D01*
X014380Y015993D01*
X014394Y016003D01*
X014407Y016016D01*
X014417Y016030D01*
X014424Y016046D01*
X014428Y016063D01*
X014430Y016080D01*
X014430Y017780D01*
X014428Y017797D01*
X014424Y017814D01*
X014417Y017830D01*
X014407Y017844D01*
X014394Y017857D01*
X014380Y017867D01*
X014364Y017874D01*
X014347Y017878D01*
X014330Y017880D01*
X013930Y017080D02*
X013930Y017030D01*
X013930Y016830D02*
X013930Y016780D01*
X012580Y015180D02*
X011780Y015180D01*
X011680Y015080D01*
X011680Y014280D01*
X011780Y014180D01*
X011680Y014080D01*
X011680Y013280D01*
X011780Y013180D01*
X012580Y013180D01*
X012680Y013280D01*
X012680Y014080D01*
X012580Y014180D01*
X012680Y014280D01*
X012680Y015080D01*
X012580Y015180D01*
X010130Y016280D02*
X010130Y016430D01*
X010080Y016480D01*
X010080Y018380D01*
X010130Y018430D01*
X010130Y018580D01*
X010128Y018597D01*
X010124Y018614D01*
X010117Y018630D01*
X010107Y018644D01*
X010094Y018657D01*
X010080Y018667D01*
X010064Y018674D01*
X010047Y018678D01*
X010030Y018680D01*
X009330Y018680D02*
X009313Y018678D01*
X009296Y018674D01*
X009280Y018667D01*
X009266Y018657D01*
X009253Y018644D01*
X009243Y018630D01*
X009236Y018614D01*
X009232Y018597D01*
X009230Y018580D01*
X009230Y018430D01*
X009280Y018380D01*
X009280Y016480D01*
X009230Y016430D01*
X009230Y016280D01*
X009232Y016263D01*
X009236Y016246D01*
X009243Y016230D01*
X009253Y016216D01*
X009266Y016203D01*
X009280Y016193D01*
X009296Y016186D01*
X009313Y016182D01*
X009330Y016180D01*
X008980Y016360D02*
X008980Y016510D01*
X008930Y016560D01*
X008930Y018460D01*
X008980Y018510D01*
X008980Y018660D01*
X008978Y018677D01*
X008974Y018694D01*
X008967Y018710D01*
X008957Y018724D01*
X008944Y018737D01*
X008930Y018747D01*
X008914Y018754D01*
X008897Y018758D01*
X008880Y018760D01*
X008180Y018760D02*
X008163Y018758D01*
X008146Y018754D01*
X008130Y018747D01*
X008116Y018737D01*
X008103Y018724D01*
X008093Y018710D01*
X008086Y018694D01*
X008082Y018677D01*
X008080Y018660D01*
X008080Y018510D01*
X008130Y018460D01*
X008130Y016560D01*
X008080Y016510D01*
X008080Y016360D01*
X008082Y016343D01*
X008086Y016326D01*
X008093Y016310D01*
X008103Y016296D01*
X008116Y016283D01*
X008130Y016273D01*
X008146Y016266D01*
X008163Y016262D01*
X008180Y016260D01*
X008880Y016260D02*
X008897Y016262D01*
X008914Y016266D01*
X008930Y016273D01*
X008944Y016283D01*
X008957Y016296D01*
X008967Y016310D01*
X008974Y016326D01*
X008978Y016343D01*
X008980Y016360D01*
X010030Y016180D02*
X010047Y016182D01*
X010064Y016186D01*
X010080Y016193D01*
X010094Y016203D01*
X010107Y016216D01*
X010117Y016230D01*
X010124Y016246D01*
X010128Y016263D01*
X010130Y016280D01*
X012030Y012680D02*
X011930Y012580D01*
X011930Y011780D01*
X012030Y011680D01*
X011930Y011580D01*
X011930Y010780D01*
X012030Y010680D01*
X011930Y010580D01*
X011930Y009780D01*
X012030Y009680D01*
X012830Y009680D01*
X012930Y009780D01*
X012930Y010580D01*
X012830Y010680D01*
X012930Y010780D01*
X012930Y011580D01*
X012830Y011680D01*
X012930Y011780D01*
X012930Y012580D01*
X012830Y012680D01*
X012030Y012680D01*
X015230Y012530D02*
X015230Y013330D01*
X015232Y013347D01*
X015236Y013364D01*
X015243Y013380D01*
X015253Y013394D01*
X015266Y013407D01*
X015280Y013417D01*
X015296Y013424D01*
X015313Y013428D01*
X015330Y013430D01*
X017030Y013430D01*
X017047Y013428D01*
X017064Y013424D01*
X017080Y013417D01*
X017094Y013407D01*
X017107Y013394D01*
X017117Y013380D01*
X017124Y013364D01*
X017128Y013347D01*
X017130Y013330D01*
X017130Y012530D01*
X017128Y012513D01*
X017124Y012496D01*
X017117Y012480D01*
X017107Y012466D01*
X017094Y012453D01*
X017080Y012443D01*
X017064Y012436D01*
X017047Y012432D01*
X017030Y012430D01*
X015330Y012430D01*
X015313Y012432D01*
X015296Y012436D01*
X015280Y012443D01*
X015266Y012453D01*
X015253Y012466D01*
X015243Y012480D01*
X015236Y012496D01*
X015232Y012513D01*
X015230Y012530D01*
X016030Y012930D02*
X016080Y012930D01*
X016280Y012930D02*
X016330Y012930D01*
X017930Y013330D02*
X017930Y015030D01*
X017932Y015047D01*
X017936Y015064D01*
X017943Y015080D01*
X017953Y015094D01*
X017966Y015107D01*
X017980Y015117D01*
X017996Y015124D01*
X018013Y015128D01*
X018030Y015130D01*
X018830Y015130D01*
X018847Y015128D01*
X018864Y015124D01*
X018880Y015117D01*
X018894Y015107D01*
X018907Y015094D01*
X018917Y015080D01*
X018924Y015064D01*
X018928Y015047D01*
X018930Y015030D01*
X018930Y013330D01*
X018928Y013313D01*
X018924Y013296D01*
X018917Y013280D01*
X018907Y013266D01*
X018894Y013253D01*
X018880Y013243D01*
X018864Y013236D01*
X018847Y013232D01*
X018830Y013230D01*
X018030Y013230D01*
X018013Y013232D01*
X017996Y013236D01*
X017980Y013243D01*
X017966Y013253D01*
X017953Y013266D01*
X017943Y013280D01*
X017936Y013296D01*
X017932Y013313D01*
X017930Y013330D01*
X018430Y014030D02*
X018430Y014080D01*
X018430Y014280D02*
X018430Y014330D01*
X019680Y014280D02*
X019680Y015080D01*
X019780Y015180D01*
X020580Y015180D01*
X020680Y015080D01*
X020680Y014280D01*
X020580Y014180D01*
X020680Y014080D01*
X020680Y013280D01*
X020580Y013180D01*
X019780Y013180D01*
X019680Y013280D01*
X019680Y014080D01*
X019780Y014180D01*
X019680Y014280D01*
X019580Y012680D02*
X018780Y012680D01*
X018680Y012580D01*
X018680Y011780D01*
X018780Y011680D01*
X018680Y011580D01*
X018680Y010780D01*
X018780Y010680D01*
X018680Y010580D01*
X018680Y009780D01*
X018780Y009680D01*
X019580Y009680D01*
X019680Y009780D01*
X019680Y010580D01*
X019580Y010680D01*
X019680Y010780D01*
X019680Y011580D01*
X019580Y011680D01*
X019680Y011780D01*
X019680Y012580D01*
X019580Y012680D01*
X021730Y016030D02*
X021730Y016180D01*
X021780Y016230D01*
X021780Y018130D01*
X021730Y018180D01*
X021730Y018330D01*
X021732Y018347D01*
X021736Y018364D01*
X021743Y018380D01*
X021753Y018394D01*
X021766Y018407D01*
X021780Y018417D01*
X021796Y018424D01*
X021813Y018428D01*
X021830Y018430D01*
X022530Y018430D02*
X022547Y018428D01*
X022564Y018424D01*
X022580Y018417D01*
X022594Y018407D01*
X022607Y018394D01*
X022617Y018380D01*
X022624Y018364D01*
X022628Y018347D01*
X022630Y018330D01*
X022630Y018180D01*
X022580Y018130D01*
X022580Y016230D01*
X022630Y016180D01*
X022630Y016030D01*
X022628Y016013D01*
X022624Y015996D01*
X022617Y015980D01*
X022607Y015966D01*
X022594Y015953D01*
X022580Y015943D01*
X022564Y015936D01*
X022547Y015932D01*
X022530Y015930D01*
X021830Y015930D02*
X021813Y015932D01*
X021796Y015936D01*
X021780Y015943D01*
X021766Y015953D01*
X021753Y015966D01*
X021743Y015980D01*
X021736Y015996D01*
X021732Y016013D01*
X021730Y016030D01*
X023700Y016130D02*
X023700Y016280D01*
X023750Y016330D01*
X023750Y018230D01*
X023700Y018280D01*
X023700Y018430D01*
X023702Y018447D01*
X023706Y018464D01*
X023713Y018480D01*
X023723Y018494D01*
X023736Y018507D01*
X023750Y018517D01*
X023766Y018524D01*
X023783Y018528D01*
X023800Y018530D01*
X024500Y018530D02*
X024517Y018528D01*
X024534Y018524D01*
X024550Y018517D01*
X024564Y018507D01*
X024577Y018494D01*
X024587Y018480D01*
X024594Y018464D01*
X024598Y018447D01*
X024600Y018430D01*
X024600Y018280D01*
X024550Y018230D01*
X024550Y016330D01*
X024600Y016280D01*
X024600Y016130D01*
X024598Y016113D01*
X024594Y016096D01*
X024587Y016080D01*
X024577Y016066D01*
X024564Y016053D01*
X024550Y016043D01*
X024534Y016036D01*
X024517Y016032D01*
X024500Y016030D01*
X023800Y016030D02*
X023783Y016032D01*
X023766Y016036D01*
X023750Y016043D01*
X023736Y016053D01*
X023723Y016066D01*
X023713Y016080D01*
X023706Y016096D01*
X023702Y016113D01*
X023700Y016130D01*
X018530Y008850D02*
X018530Y008700D01*
X018480Y008650D01*
X018480Y006750D01*
X018530Y006700D01*
X018530Y006550D01*
X018528Y006533D01*
X018524Y006516D01*
X018517Y006500D01*
X018507Y006486D01*
X018494Y006473D01*
X018480Y006463D01*
X018464Y006456D01*
X018447Y006452D01*
X018430Y006450D01*
X017730Y006450D02*
X017713Y006452D01*
X017696Y006456D01*
X017680Y006463D01*
X017666Y006473D01*
X017653Y006486D01*
X017643Y006500D01*
X017636Y006516D01*
X017632Y006533D01*
X017630Y006550D01*
X017630Y006700D01*
X017680Y006750D01*
X017680Y008650D01*
X017630Y008700D01*
X017630Y008850D01*
X017632Y008867D01*
X017636Y008884D01*
X017643Y008900D01*
X017653Y008914D01*
X017666Y008927D01*
X017680Y008937D01*
X017696Y008944D01*
X017713Y008948D01*
X017730Y008950D01*
X018430Y008950D02*
X018447Y008948D01*
X018464Y008944D01*
X018480Y008937D01*
X018494Y008927D01*
X018507Y008914D01*
X018517Y008900D01*
X018524Y008884D01*
X018528Y008867D01*
X018530Y008850D01*
X014630Y008830D02*
X014630Y008680D01*
X014580Y008630D01*
X014580Y006730D01*
X014630Y006680D01*
X014630Y006530D01*
X014628Y006513D01*
X014624Y006496D01*
X014617Y006480D01*
X014607Y006466D01*
X014594Y006453D01*
X014580Y006443D01*
X014564Y006436D01*
X014547Y006432D01*
X014530Y006430D01*
X013830Y006430D02*
X013813Y006432D01*
X013796Y006436D01*
X013780Y006443D01*
X013766Y006453D01*
X013753Y006466D01*
X013743Y006480D01*
X013736Y006496D01*
X013732Y006513D01*
X013730Y006530D01*
X013730Y006680D01*
X013780Y006730D01*
X013780Y008630D01*
X013730Y008680D01*
X013730Y008830D01*
X013732Y008847D01*
X013736Y008864D01*
X013743Y008880D01*
X013753Y008894D01*
X013766Y008907D01*
X013780Y008917D01*
X013796Y008924D01*
X013813Y008928D01*
X013830Y008930D01*
X014530Y008930D02*
X014547Y008928D01*
X014564Y008924D01*
X014580Y008917D01*
X014594Y008907D01*
X014607Y008894D01*
X014617Y008880D01*
X014624Y008864D01*
X014628Y008847D01*
X014630Y008830D01*
X011630Y021030D02*
X011630Y021180D01*
X011580Y021230D01*
X011580Y023130D01*
X011630Y023180D01*
X011630Y023330D01*
X011628Y023347D01*
X011624Y023364D01*
X011617Y023380D01*
X011607Y023394D01*
X011594Y023407D01*
X011580Y023417D01*
X011564Y023424D01*
X011547Y023428D01*
X011530Y023430D01*
X010830Y023430D02*
X010813Y023428D01*
X010796Y023424D01*
X010780Y023417D01*
X010766Y023407D01*
X010753Y023394D01*
X010743Y023380D01*
X010736Y023364D01*
X010732Y023347D01*
X010730Y023330D01*
X010730Y023180D01*
X010780Y023130D01*
X010780Y021230D01*
X010730Y021180D01*
X010730Y021030D01*
X010732Y021013D01*
X010736Y020996D01*
X010743Y020980D01*
X010753Y020966D01*
X010766Y020953D01*
X010780Y020943D01*
X010796Y020936D01*
X010813Y020932D01*
X010830Y020930D01*
X011530Y020930D02*
X011547Y020932D01*
X011564Y020936D01*
X011580Y020943D01*
X011594Y020953D01*
X011607Y020966D01*
X011617Y020980D01*
X011624Y020996D01*
X011628Y021013D01*
X011630Y021030D01*
D13*
X011805Y020180D02*
X011805Y023930D01*
X013805Y023930D01*
X013805Y023680D01*
X013680Y023680D01*
X013680Y020430D01*
X013805Y020430D01*
X013805Y020180D01*
X011805Y020180D01*
X015305Y020180D02*
X015305Y023930D01*
X017305Y023930D01*
X017305Y023680D01*
X017180Y023680D01*
X017180Y020430D01*
X017305Y020430D01*
X017305Y020180D01*
X015305Y020180D01*
X018805Y020180D02*
X018805Y023930D01*
X020805Y023930D01*
X020805Y023680D01*
X020680Y023680D01*
X020680Y020430D01*
X020805Y020430D01*
X020805Y020180D01*
X018805Y020180D01*
D14*
X018930Y019280D02*
X018630Y019280D01*
X018630Y019080D02*
X018930Y019080D01*
X019230Y019080D01*
X019230Y019280D02*
X018930Y019280D01*
X014230Y019030D02*
X013930Y019030D01*
X013630Y019030D01*
X013630Y018830D02*
X013930Y018830D01*
X014230Y018830D01*
X014230Y017030D02*
X013930Y017030D01*
X013630Y017030D01*
X013630Y016830D02*
X013930Y016830D01*
X014230Y016830D01*
X018130Y014280D02*
X018430Y014280D01*
X018730Y014280D01*
X018730Y014080D02*
X018430Y014080D01*
X018130Y014080D01*
X016280Y013230D02*
X016280Y012930D01*
X016280Y012630D01*
X016080Y012630D02*
X016080Y012930D01*
X016080Y013230D01*
D15*
X011405Y010016D02*
X011405Y009903D01*
X011461Y009846D01*
X011575Y009959D02*
X011575Y010016D01*
X011632Y010073D01*
X011688Y010073D01*
X011745Y010016D01*
X011745Y009903D01*
X011688Y009846D01*
X011575Y010016D02*
X011518Y010073D01*
X011461Y010073D01*
X011405Y010016D01*
X011461Y010846D02*
X011405Y010903D01*
X011405Y011016D01*
X011461Y011073D01*
X011518Y011073D01*
X011745Y010846D01*
X011745Y011073D01*
X011745Y011846D02*
X011745Y012073D01*
X011745Y011959D02*
X011405Y011959D01*
X011518Y011846D01*
X018205Y015305D02*
X018505Y015305D01*
X018355Y015305D02*
X018355Y015755D01*
X018205Y015605D01*
X021055Y017280D02*
X021130Y017205D01*
X021280Y017205D01*
X021355Y017280D01*
X021355Y017355D01*
X021280Y017430D01*
X021055Y017430D01*
X021055Y017280D01*
X021055Y017430D02*
X021205Y017580D01*
X021355Y017655D01*
X020148Y012432D02*
X020205Y012375D01*
X020205Y012262D01*
X020148Y012205D01*
X020035Y012318D02*
X020035Y012375D01*
X020092Y012432D01*
X020148Y012432D01*
X020035Y012375D02*
X019978Y012432D01*
X019921Y012432D01*
X019865Y012375D01*
X019865Y012262D01*
X019921Y012205D01*
X020555Y011797D02*
X020705Y011947D01*
X021005Y011947D01*
X020780Y011947D02*
X020780Y011647D01*
X020705Y011647D02*
X020555Y011797D01*
X020705Y011647D02*
X021005Y011647D01*
X021005Y011486D02*
X020855Y011336D01*
X020855Y011411D02*
X020855Y011186D01*
X021005Y011186D02*
X020555Y011186D01*
X020555Y011411D01*
X020630Y011486D01*
X020780Y011486D01*
X020855Y011411D01*
X020555Y011026D02*
X020555Y010726D01*
X020555Y010876D02*
X021005Y010876D01*
X021005Y010566D02*
X020555Y010265D01*
X020555Y010105D02*
X020555Y009805D01*
X021005Y009805D01*
X021005Y010105D01*
X021005Y010265D02*
X020555Y010566D01*
X020205Y010432D02*
X020205Y010205D01*
X020205Y010318D02*
X019865Y010318D01*
X019978Y010205D01*
X020780Y009955D02*
X020780Y009805D01*
X020205Y011205D02*
X019978Y011432D01*
X019921Y011432D01*
X019865Y011375D01*
X019865Y011262D01*
X019921Y011205D01*
X020205Y011205D02*
X020205Y011432D01*
M02*
